<?xml version="1.0" encoding="iso-8859-1"?>
<!-- Generator: Adobe Illustrator 18.0.0, SVG Export Plug-In . SVG Version: 6.00 Build 0)  -->
<!DOCTYPE svg PUBLIC "-//W3C//DTD SVG 1.1//EN" "http://www.w3.org/Graphics/SVG/1.1/DTD/svg11.dtd">
<svg version="1.1" id="Capa_1" xmlns="http://www.w3.org/2000/svg" xmlns:xlink="http://www.w3.org/1999/xlink" x="0px" y="0px"
	 viewBox="0 0 490 490" style="enable-background:new 0 0 490 490;" xml:space="preserve">
<g>
	<path d="M480,65.595H10c-5.523,0-10,4.478-10,10v338.811c0,5.523,4.477,10,10,10h470c5.522,0,10-4.477,10-10V75.595
		C490,70.072,485.522,65.595,480,65.595z M470,85.595v62.626H20V85.595H470z M20,404.405V168.221h450v236.185H20z"/>
	<path d="M67.294,126.908h5.93c5.523,0,10-4.478,10-10s-4.477-10-10-10h-5.93c-5.522,0-10,4.478-10,10
		S61.771,126.908,67.294,126.908z"/>
	<path d="M110.737,126.908h5.92c5.522,0,10-4.478,10-10s-4.478-10-10-10h-5.92c-5.522,0-10,4.478-10,10
		S105.215,126.908,110.737,126.908z"/>
	<path d="M154.173,126.908h5.924c5.522,0,10-4.478,10-10s-4.478-10-10-10h-5.924c-5.522,0-10,4.478-10,10
		S148.65,126.908,154.173,126.908z"/>
	<path d="M104.813,203.166H67.297c-5.522,0-10,4.477-10,10c0,5.522,4.478,10,10,10h37.516c5.522,0,10-4.478,10-10
		C114.813,207.644,110.335,203.166,104.813,203.166z"/>
	<path d="M422.703,203.166H169.973c-5.522,0-10,4.477-10,10c0,5.522,4.478,10,10,10h252.731c5.522,0,10-4.478,10-10
		C432.703,207.644,428.226,203.166,422.703,203.166z"/>
	<path d="M104.813,251.542H67.297c-5.522,0-10,4.477-10,10c0,5.523,4.478,10,10,10h37.516c5.522,0,10-4.477,10-10
		C114.813,256.019,110.335,251.542,104.813,251.542z"/>
	<path d="M422.703,251.542h-74.041c-5.522,0-10,4.477-10,10c0,5.523,4.478,10,10,10h74.041c5.522,0,10-4.477,10-10
		C432.703,256.019,428.226,251.542,422.703,251.542z"/>
	<path d="M317.07,271.542c5.522,0,10-4.477,10-10c0-5.523-4.478-10-10-10h-66.147c-5.523,0-10,4.477-10,10c0,5.523,4.477,10,10,10
		H317.07z"/>
	<path d="M169.973,271.542h38.502c5.522,0,10-4.477,10-10c0-5.523-4.478-10-10-10h-38.502c-5.522,0-10,4.477-10,10
		C159.973,267.065,164.45,271.542,169.973,271.542z"/>
	<path d="M104.813,299.916H67.297c-5.522,0-10,4.478-10,10s4.478,10,10,10h37.516c5.522,0,10-4.478,10-10
		S110.335,299.916,104.813,299.916z"/>
	<path d="M422.703,299.916H169.973c-5.522,0-10,4.478-10,10s4.478,10,10,10h252.731c5.522,0,10-4.478,10-10
		S428.226,299.916,422.703,299.916z"/>
	<path d="M104.813,348.293H67.297c-5.522,0-10,4.478-10,10c0,5.522,4.478,10,10,10h37.516c5.522,0,10-4.478,10-10
		C114.813,352.771,110.335,348.293,104.813,348.293z"/>
	<path d="M422.703,348.293h-74.041c-5.522,0-10,4.478-10,10c0,5.522,4.478,10,10,10h74.041c5.522,0,10-4.478,10-10
		C432.703,352.771,428.226,348.293,422.703,348.293z"/>
	<path d="M317.07,348.293h-66.147c-5.523,0-10,4.478-10,10c0,5.522,4.477,10,10,10h66.147c5.522,0,10-4.478,10-10
		C327.07,352.771,322.593,348.293,317.07,348.293z"/>
	<path d="M208.475,348.293h-38.502c-5.522,0-10,4.478-10,10c0,5.522,4.478,10,10,10h38.502c5.522,0,10-4.478,10-10
		C218.475,352.771,213.997,348.293,208.475,348.293z"/>
</g>
<g>
</g>
<g>
</g>
<g>
</g>
<g>
</g>
<g>
</g>
<g>
</g>
<g>
</g>
<g>
</g>
<g>
</g>
<g>
</g>
<g>
</g>
<g>
</g>
<g>
</g>
<g>
</g>
<g>
</g>
</svg>
