<?xml version="1.0" encoding="utf-8"?>
<!-- Generator: Adobe Illustrator 16.0.0, SVG Export Plug-In . SVG Version: 6.00 Build 0)  -->
<!DOCTYPE svg PUBLIC "-//W3C//DTD SVG 1.1//EN" "http://www.w3.org/Graphics/SVG/1.1/DTD/svg11.dtd">
<svg version="1.1" id="Layer_1" xmlns="http://www.w3.org/2000/svg" xmlns:xlink="http://www.w3.org/1999/xlink" x="0px" y="0px"
	 width="1000px" height="500px" viewBox="0 0 1000 500" enable-background="new 0 0 1000 500" xml:space="preserve">
<g id="Group_2_1_">
	<g id="flint_copy">
		<g>
			<path fill="#CC3B3B" d="M339.899,169.081c0,0,0.032-0.003,0-0.008V169.081z M329.888,129.992
				c-39.269,0-69.89,24.569-69.89,63.413c0,7.256-0.029,174.726-0.029,174.726l38.936-0.041l0.019-115.395l20.488-0.09
				l-0.038-39.052l-20.455,0.07c0,0,0.045-7.594,0.045-12.394c0-28.183,18.544-32.193,37.231-32.193
				c3.052,0,3.619,0.023,3.705,0.036l-0.032-39.017L329.888,129.992z M362.316,130.616l-0.131,237.504l15.309,0.088
				c0,0,15.698-0.025,25.592-0.025c0-12.696-0.039-228.105-0.039-238.017C395.008,130.166,362.316,130.616,362.316,130.616z
				 M436.186,213.559c-0.36,112.207-0.023,154.414-0.023,154.414l40.796,0.105l-0.211-154.543L436.186,213.559z M644.127,238.618
				c-11.922-16.408-32.462-24.983-56.812-24.983h-4.171c-7.003,0.145-27.474,4.466-32.496,9.177c0-2.821-0.071-9.271-0.071-9.271
				l-42.615,0.073l0.003,154.472l40.865,0.012l-0.045-72.781c0-23.65,1.473-46.464,34.085-46.464h0.768
				c30.542,0,33.306,16.253,33.306,40.638l0.024,78.616l38.179-0.16c-0.379-71.683,0.609-70.646,0.609-89.364
				C655.756,263.164,653.571,251.018,644.127,238.618z M737.52,250.723l-0.11-37.14h-16.646l0.209-27.802l-39.037,0.021
				c0,0,0.096,183.162,0.096,183.564l38.904,0.194c0-13.316-0.334-118.84-0.334-118.84h16.918V250.723z"/>
		</g>
	</g>
	<g id="Ellipse_1">
		<g>
			<path fill="#CC3B3B" d="M457.908,145.09c0,0-20.379,14.977-20.484,27.549c-0.104,12.571,7.511,22.828,20.062,22.934
				c12.551,0.106,20.337-10.021,20.441-22.593C478.033,160.407,457.908,145.09,457.908,145.09z"/>
		</g>
	</g>
</g>
</svg>
