<?xml version="1.0" encoding="iso-8859-1"?>
<!-- Generator: Adobe Illustrator 19.0.0, SVG Export Plug-In . SVG Version: 6.00 Build 0)  -->
<svg version="1.1" id="Capa_1" xmlns="http://www.w3.org/2000/svg" xmlns:xlink="http://www.w3.org/1999/xlink" x="0px" y="0px"
	 viewBox="0 0 539.077 539.077" style="enable-background:new 0 0 539.077 539.077;" xml:space="preserve">
<g>
	<g>
		<path d="M482.923,482.923H56.154C25.192,482.923,0,457.742,0,426.769V112.308c0-30.961,25.192-56.154,56.154-56.154h426.769
			c30.972,0,56.154,25.192,56.154,56.154v314.462C539.077,457.742,513.895,482.923,482.923,482.923z M22.462,190.923v235.846
			c0,18.579,15.113,33.692,33.692,33.692h426.769c18.579,0,33.692-15.113,33.692-33.692V190.923H22.462z M22.462,168.462h494.154
			v-56.154c0-18.579-15.113-33.692-33.692-33.692H56.154c-18.579,0-33.692,15.113-33.692,33.692V168.462z"/>
		<path d="M89.846,146c-12.382,0-22.462-10.079-22.462-22.462s10.079-22.462,22.462-22.462s22.462,10.079,22.462,22.462
			S102.229,146,89.846,146z"/>
		<path d="M157.231,146c-12.382,0-22.462-10.079-22.462-22.462s10.079-22.462,22.462-22.462c12.382,0,22.462,10.079,22.462,22.462
			S169.613,146,157.231,146z"/>
		<path d="M224.615,146c-12.382,0-22.462-10.079-22.462-22.462s10.079-22.462,22.462-22.462c12.382,0,22.462,10.079,22.462,22.462
			S236.998,146,224.615,146z"/>
	</g>
</g>
<g>
</g>
<g>
</g>
<g>
</g>
<g>
</g>
<g>
</g>
<g>
</g>
<g>
</g>
<g>
</g>
<g>
</g>
<g>
</g>
<g>
</g>
<g>
</g>
<g>
</g>
<g>
</g>
<g>
</g>
</svg>
