<?xml version="1.0" encoding="utf-8"?>
<!-- Generator: Adobe Illustrator 18.0.0, SVG Export Plug-In . SVG Version: 6.00 Build 0)  -->
<!DOCTYPE svg PUBLIC "-//W3C//DTD SVG 1.1//EN" "http://www.w3.org/Graphics/SVG/1.1/DTD/svg11.dtd">
<svg version="1.1" id="图层_1" xmlns="http://www.w3.org/2000/svg" xmlns:xlink="http://www.w3.org/1999/xlink" x="0px" y="0px"
	 viewBox="0 0 40 40" enable-background="new 0 0 40 40" xml:space="preserve">
<g>
	<g>
		<g>
			<g>
				<g>
					<path fill="#231815" d="M21.8,26.5h-3.5c-0.8,0-1.4-0.6-1.4-1.4c0-1.7-0.5-3.2-1.4-4.3c-1-1.3-1.4-2.9-1.2-4.5
						c0.4-2.5,2.5-4.5,5-4.8c3.5-0.4,6.4,2.3,6.4,5.7c0,1.2-0.4,2.4-1.1,3.4c-1,1.3-1.5,2.8-1.5,4.2v0.3
						C23.1,25.9,22.5,26.5,21.8,26.5z M20,12.5c-0.2,0-0.4,0-0.6,0c-2.1,0.2-3.8,1.9-4.1,4c-0.2,1.4,0.1,2.7,1,3.7
						c1,1.3,1.6,3,1.6,4.9c0,0.3,0.2,0.4,0.4,0.4h3.5c0.2,0,0.4-0.2,0.4-0.4v-0.3c0-1.6,0.6-3.3,1.7-4.8c0.6-0.8,0.9-1.8,0.9-2.8
						C24.8,14.6,22.6,12.5,20,12.5z"/>
				</g>
				<g>
					<path fill="#231815" d="M22.4,25.7c0.1,0.1,0.1,0.3,0,0.5l-1,2c-0.1,0.2-0.3,0.3-0.4,0.3h-2c-0.2,0-0.4-0.1-0.4-0.3l-1-2
						c-0.1-0.2-0.1-0.3,0-0.5H22.4z M19.3,27.5h1.4l0.5-1h-2.4L19.3,27.5z"/>
				</g>
			</g>
			<g>
				<rect x="17" y="22" fill="#231815" width="6.1" height="1"/>
			</g>
		</g>
	</g>
</g>
</svg>
