<?xml version="1.0" encoding="utf-8"?>
<!-- Generator: Adobe Illustrator 18.0.0, SVG Export Plug-In . SVG Version: 6.00 Build 0)  -->
<!DOCTYPE svg PUBLIC "-//W3C//DTD SVG 1.1//EN" "http://www.w3.org/Graphics/SVG/1.1/DTD/svg11.dtd">
<svg version="1.1" id="图层_1" xmlns="http://www.w3.org/2000/svg" xmlns:xlink="http://www.w3.org/1999/xlink" x="0px" y="0px"
	 viewBox="0 0 40 40" enable-background="new 0 0 40 40" xml:space="preserve">
<g>
	<g>
		<g>
			<g>
				<path fill="#231815" d="M20,22.5c-1.4,0-2.5-1.1-2.5-2.5s1.1-2.5,2.5-2.5s2.5,1.1,2.5,2.5S21.4,22.5,20,22.5z M20,18.5
					c-0.8,0-1.5,0.7-1.5,1.5s0.7,1.5,1.5,1.5s1.5-0.7,1.5-1.5S20.8,18.5,20,18.5z"/>
			</g>
			<g>
				<path fill="#231815" d="M20.7,28.5h-1.3c-0.6,0-1.2-0.5-1.2-1.2v-1c-0.4-0.1-0.8-0.3-1.2-0.5c-0.1,0-0.2,0-0.2,0l-0.7,0.7
					c-0.4,0.4-1.2,0.4-1.7,0l-1-1c-0.5-0.5-0.5-1.2,0-1.7l0.7-0.7c0.1-0.1,0-0.2,0-0.2c-0.2-0.3-0.3-0.7-0.4-1
					c0-0.1-0.1-0.1-0.2-0.1h-0.9c-0.6,0-1.2-0.5-1.2-1.2v-1.3c0-0.6,0.5-1.2,1.2-1.2h0.9c0.1,0,0.1-0.1,0.2-0.1
					c0.1-0.4,0.3-0.7,0.4-1c0-0.1,0-0.1,0-0.2l-0.7-0.7c-0.5-0.5-0.5-1.2,0-1.7l1-1c0.4-0.4,1.2-0.4,1.7,0l0.7,0.7
					c0.1,0.1,0.1,0.1,0.2,0c0.3-0.2,0.7-0.3,1-0.4c0.1,0,0.1-0.1,0.1-0.2v-0.9c0-0.6,0.5-1.2,1.2-1.2h1.3c0.6,0,1.2,0.5,1.2,1.2v0.9
					c0,0.1,0.1,0.1,0.1,0.2c0.3,0.1,0.7,0.3,1,0.4c0.1,0,0.2,0,0.2,0l0.7-0.7c0.4-0.4,1.2-0.4,1.7,0l1,1c0.5,0.5,0.5,1.2,0,1.7
					l-0.7,0.7c-0.1,0.1,0,0.2,0,0.2c0.2,0.3,0.3,0.7,0.4,1c0,0.1,0.1,0.1,0.2,0.1h0.9c0.6,0,1.2,0.5,1.2,1.2v1.3
					c0,0.6-0.5,1.2-1.2,1.2h-0.9c-0.1,0-0.1,0.1-0.2,0.1c-0.1,0.4-0.3,0.7-0.4,1c0,0.1,0,0.1,0,0.2l0.7,0.7c0.5,0.5,0.5,1.2,0,1.7
					l-1,1c-0.4,0.4-1.2,0.4-1.7,0l-0.7-0.7c-0.1-0.1-0.1-0.1-0.2,0c-0.3,0.2-0.7,0.3-1,0.4c-0.1,0-0.1,0.1-0.1,0.2v0.9
					C21.8,28,21.3,28.5,20.7,28.5z M16.9,24.8c0.2,0,0.4,0,0.6,0.1c0.4,0.2,0.9,0.4,1.3,0.5c0.2,0.1,0.4,0.3,0.4,0.5v1.4
					c0,0.1,0.1,0.2,0.2,0.2h1.3c0.1,0,0.2-0.1,0.2-0.2v-0.9c0-0.5,0.3-1,0.8-1.1c0.3-0.1,0.6-0.2,0.9-0.4c0.5-0.2,1-0.2,1.4,0.2
					l0.7,0.7c0.1,0.1,0.2,0.1,0.2,0l1-1c0.1-0.1,0.1-0.2,0-0.2l-0.7-0.7c-0.4-0.4-0.4-0.9-0.2-1.4c0.1-0.3,0.3-0.6,0.4-0.9
					c0.2-0.5,0.6-0.8,1.1-0.8h0.9c0.1,0,0.2-0.1,0.2-0.2v-1.3c0-0.1-0.1-0.2-0.2-0.2h-0.9c-0.5,0-1-0.3-1.1-0.8
					c-0.1-0.3-0.2-0.6-0.4-0.9c-0.2-0.5-0.2-1,0.2-1.4l0.7-0.7c0.1-0.1,0.1-0.2,0-0.2l-1-1c-0.1-0.1-0.2-0.1-0.2,0l-0.7,0.7
					c-0.4,0.3-0.9,0.4-1.4,0.2c-0.3-0.1-0.6-0.3-0.9-0.4c-0.5-0.2-0.8-0.6-0.8-1.1v-0.9c0-0.1-0.1-0.2-0.2-0.2h-1.3
					c-0.1,0-0.2,0.1-0.2,0.2v0.9c0,0.5-0.3,1-0.8,1.1c-0.3,0.1-0.6,0.2-0.9,0.4c-0.5,0.2-1,0.2-1.4-0.2l-0.7-0.7
					c-0.1-0.1-0.2-0.1-0.2,0l-1,1c-0.1,0.1-0.1,0.2,0,0.2l0.7,0.7c0.4,0.4,0.4,0.9,0.2,1.4c-0.1,0.3-0.3,0.6-0.4,0.9
					c-0.2,0.5-0.6,0.8-1.1,0.8h-0.9c-0.1,0-0.2,0.1-0.2,0.2v1.3c0,0.1,0.1,0.2,0.2,0.2h0.9c0.5,0,1,0.3,1.1,0.8
					c0.1,0.3,0.2,0.6,0.4,0.9c0.2,0.5,0.2,1-0.2,1.4l-0.7,0.7c-0.1,0.1-0.1,0.2,0,0.2l1,1c0.1,0.1,0.2,0.1,0.2,0l0.7-0.7
					C16.3,24.9,16.6,24.8,16.9,24.8z"/>
			</g>
		</g>
	</g>
</g>
</svg>
