<?xml version="1.0" encoding="utf-8"?>
<!-- Generator: Adobe Illustrator 18.0.0, SVG Export Plug-In . SVG Version: 6.00 Build 0)  -->
<!DOCTYPE svg PUBLIC "-//W3C//DTD SVG 1.1//EN" "http://www.w3.org/Graphics/SVG/1.1/DTD/svg11.dtd">
<svg version="1.1" id="图层_1" xmlns="http://www.w3.org/2000/svg" xmlns:xlink="http://www.w3.org/1999/xlink" x="0px" y="0px"
	 viewBox="0 0 40 40" enable-background="new 0 0 40 40" xml:space="preserve">
<g>
	<g>
		<g>
			<g>
				<g>
					<path fill="#231815" d="M12.8,28L12.8,28c-0.3,0-0.6-0.2-0.7-0.4c-0.2-0.3-0.2-0.6,0-0.8l3-5.9c0.1-0.2,0.3-0.3,0.5-0.3
						c0.2,0,0.4,0.2,0.4,0.4c0.2,0.8,0.6,1.4,1.1,2c0.5,0.5,1.2,0.9,2,1.1c0.2,0,0.4,0.2,0.4,0.4c0,0.2-0.1,0.4-0.3,0.5l-5.9,3
						C13.1,28,13,28,12.8,28z M15.4,22.3l-2.3,4.5l4.5-2.3c-0.5-0.2-0.9-0.6-1.3-0.9S15.7,22.8,15.4,22.3z"/>
				</g>
				<g>
					<path fill="#231815" d="M24.5,19.4C24.5,19.4,24.4,19.4,24.5,19.4c-0.3,0-0.4-0.2-0.5-0.4c-0.2-0.8-0.6-1.4-1.1-2
						c-0.5-0.5-1.2-0.9-2-1.1c-0.2,0-0.4-0.2-0.4-0.4c0-0.2,0.1-0.4,0.3-0.5l5.9-3c0.4-0.2,0.9-0.1,1.1,0.3c0.2,0.3,0.2,0.6,0,0.8
						l-3,5.9C24.8,19.3,24.7,19.4,24.5,19.4z M22.3,15.4c0.5,0.2,0.9,0.6,1.3,0.9c0.4,0.4,0.7,0.8,0.9,1.3l2.3-4.6L22.3,15.4z"/>
				</g>
				<g>
					<path fill="#231815" d="M15.5,21.6c-0.2,0-0.4-0.2-0.5-0.4c-0.4-1.7,0.1-3.5,1.3-4.8c1.3-1.3,3-1.8,4.8-1.3
						c0.3,0.1,0.4,0.3,0.4,0.6c-0.1,0.3-0.3,0.4-0.6,0.4c-1.4-0.3-2.8,0.1-3.9,1.1s-1.4,2.5-1.1,3.9c0.1,0.3-0.1,0.5-0.4,0.6
						C15.6,21.6,15.6,21.6,15.5,21.6z"/>
				</g>
				<g>
					<path fill="#231815" d="M20,25.1c-0.4,0-0.8,0-1.2-0.1c-0.3-0.1-0.4-0.3-0.4-0.6s0.3-0.4,0.6-0.4c1.4,0.3,2.8-0.1,3.9-1.1
						s1.4-2.5,1.1-3.9c-0.1-0.3,0.1-0.5,0.4-0.6c0.3-0.1,0.5,0.1,0.6,0.4c0.4,1.7-0.1,3.5-1.3,4.8C22.6,24.6,21.4,25.1,20,25.1z"/>
				</g>
			</g>
			<g>
				<path fill="#231815" d="M20,21.4c-0.4,0-0.7-0.1-1-0.4s-0.4-0.6-0.4-1s0.1-0.7,0.4-1c0.5-0.5,1.5-0.5,2,0c0.3,0.3,0.4,0.6,0.4,1
					s-0.1,0.7-0.4,1S20.4,21.4,20,21.4z M20,19.6c-0.1,0-0.2,0-0.3,0.1s-0.1,0.2-0.1,0.3s0,0.2,0.1,0.3c0.2,0.2,0.4,0.2,0.6,0
					c0.1-0.1,0.1-0.2,0.1-0.3s0-0.2-0.1-0.3S20.1,19.6,20,19.6z"/>
			</g>
		</g>
	</g>
</g>
</svg>
