<?xml version="1.0" encoding="utf-8"?>
<!-- Generator: Adobe Illustrator 18.0.0, SVG Export Plug-In . SVG Version: 6.00 Build 0)  -->
<!DOCTYPE svg PUBLIC "-//W3C//DTD SVG 1.1//EN" "http://www.w3.org/Graphics/SVG/1.1/DTD/svg11.dtd">
<svg version="1.1" id="图层_1" xmlns="http://www.w3.org/2000/svg" xmlns:xlink="http://www.w3.org/1999/xlink" x="0px" y="0px"
	 viewBox="0 0 40 40" enable-background="new 0 0 40 40" xml:space="preserve">
<g>
	<g>
		<g>
			<g>
				<path d="M26.6,21.4l-1,4.4c-0.3,1.2-1.3,2-2.5,2h-6.3c-1.2,0-2.3-0.8-2.5-2l-1-4.4l1-0.2l1,4.4c0.2,0.7,0.8,1.2,1.5,1.2h6.3
					c0.7,0,1.4-0.5,1.5-1.2l1-4.4L26.6,21.4z"/>
			</g>
			<g>
				<g>
					<path d="M16.6,27.4l-0.6-4.2c0-0.3,0.2-0.5,0.4-0.6c0.3,0,0.5,0.2,0.6,0.4l0.6,4.2L16.6,27.4z"/>
				</g>
				<g>
					<path d="M20.5,27.3l0.2-4.2c0-0.3,0.2-0.5,0.5-0.5c0.3,0,0.5,0.2,0.5,0.5l-0.2,4.2L20.5,27.3z"/>
				</g>
				<g>
					<path d="M22.4,27.3L23,23c0-0.3,0.3-0.5,0.6-0.4c0.3,0,0.5,0.3,0.4,0.6l-0.6,4.2L22.4,27.3z"/>
				</g>
				<g>
					<path d="M18.5,27.4l-0.2-4.2c0-0.3,0.2-0.5,0.5-0.5c0.3,0,0.5,0.2,0.5,0.5l0.2,4.2L18.5,27.4z"/>
				</g>
			</g>
		</g>
		<g>
			<path d="M20,22.1c-6.5,0-7.7,0-7.7-3.1c0-1.5,1.3-2.2,2.8-3c1.4-0.8,3.2-1.7,4.5-3.7c0.2-0.3,0.7-0.3,0.8,0
				c1.3,2,3.1,2.9,4.5,3.7c1.5,0.8,2.8,1.5,2.8,3C27.7,22.1,26.5,22.1,20,22.1z M20,13.5c-1.4,1.8-3.1,2.7-4.5,3.4
				c-1.5,0.8-2.3,1.2-2.3,2.1c0,2,0,2.1,6.7,2.1s6.7-0.1,6.7-2.1c0-0.9-0.8-1.3-2.3-2.1C23.1,16.2,21.4,15.3,20,13.5z"/>
		</g>
	</g>
	<g>
		<path d="M27.3,20c-0.4,0.4-1.1,0.6-1.9,0.5c-4.3-0.3-5.4-4.6-5.7-6.7c-0.9,1.1-2.4,3-2.3,4.5c0,0.5,0.2,1,0.6,1.3
			c1.6,1.5,4.8,1.5,4.8,1.5c0.3,0,0.5,0.2,0.5,0.5s-0.2,0.5-0.5,0.5l0,0c-0.1,0-3.7,0-5.5-1.8c-0.6-0.5-0.9-1.2-0.9-2
			c0-2.7,3.2-5.9,3.4-6c0.1-0.1,0.4-0.2,0.5-0.1c0.2,0.1,0.3,0.3,0.3,0.5c0,0.3,0.2,6.5,4.9,6.8c0.5,0,1,0,1.2-0.2
			c0.1-0.1,0.1-0.2,0.1-0.2c0-0.3,0.2-0.5,0.5-0.5L27.3,20z"/>
	</g>
</g>
</svg>
