<?xml version="1.0" encoding="utf-8"?>
<!-- Generator: Adobe Illustrator 18.0.0, SVG Export Plug-In . SVG Version: 6.00 Build 0)  -->
<!DOCTYPE svg PUBLIC "-//W3C//DTD SVG 1.1//EN" "http://www.w3.org/Graphics/SVG/1.1/DTD/svg11.dtd">
<svg version="1.1" id="图层_1" xmlns="http://www.w3.org/2000/svg" xmlns:xlink="http://www.w3.org/1999/xlink" x="0px" y="0px"
	 viewBox="0 0 40 40" enable-background="new 0 0 40 40" xml:space="preserve">
<g>
	<g>
		<g>
			<path fill="#231815" d="M26,26.5H14c-1.4,0-2.5-1.1-2.5-2.5v-8c0-1.4,1.1-2.5,2.5-2.5h12c1.4,0,2.5,1.1,2.5,2.5v8
				C28.5,25.4,27.4,26.5,26,26.5z M14,14.5c-0.8,0-1.5,0.7-1.5,1.5v8c0,0.8,0.7,1.5,1.5,1.5h12c0.8,0,1.5-0.7,1.5-1.5v-8
				c0-0.8-0.7-1.5-1.5-1.5H14z"/>
		</g>
		<g>
			<path fill="#231815" d="M28,22.9c-2.8,0-4.4-0.9-5.8-1.6C21,20.6,19.8,20,17.9,20c0,0,0,0,0,0c-3.2,0-5.5,2.7-5.5,2.7
				c-0.1,0.1-0.2,0.2-0.4,0.2l-0.4-0.8c0.1-0.1,2.6-3.1,6.3-3.1c0,0,0,0,0,0c2.2,0,3.5,0.7,4.8,1.4c1.3,0.7,2.7,1.5,5.3,1.5V22.9z"
				/>
		</g>
		<g>
			<path fill="#231815" d="M24.5,19.4c-0.8,0-1.5-0.7-1.5-1.5s0.7-1.5,1.5-1.5s1.5,0.7,1.5,1.5S25.3,19.4,24.5,19.4z M24.5,17.4
				c-0.3,0-0.5,0.2-0.5,0.5s0.2,0.5,0.5,0.5s0.5-0.2,0.5-0.5S24.8,17.4,24.5,17.4z"/>
		</g>
	</g>
</g>
</svg>
