<?xml version="1.0" encoding="utf-8"?>
<!-- Generator: Adobe Illustrator 18.0.0, SVG Export Plug-In . SVG Version: 6.00 Build 0)  -->
<!DOCTYPE svg PUBLIC "-//W3C//DTD SVG 1.1//EN" "http://www.w3.org/Graphics/SVG/1.1/DTD/svg11.dtd">
<svg version="1.1" id="图层_1" xmlns="http://www.w3.org/2000/svg" xmlns:xlink="http://www.w3.org/1999/xlink" x="0px" y="0px"
	 viewBox="0 0 40 40" enable-background="new 0 0 40 40" xml:space="preserve">
<g>
	<g>
		<g>
			<g>
				<g>
					<path fill="#231815" d="M26.6,21.7c-0.1,0-0.2,0-0.3-0.1l-2.7-2.4c-0.2-0.2-0.2-0.5,0-0.7c0.2-0.2,0.5-0.2,0.7,0l2.3,2.1
						l2.1-2.3c0.2-0.2,0.5-0.2,0.7,0c0.2,0.2,0.2,0.5,0,0.7l-2.4,2.7C26.8,21.6,26.7,21.7,26.6,21.7C26.6,21.7,26.6,21.7,26.6,21.7z
						"/>
				</g>
				<g>
					<path fill="#231815" d="M11,22c-0.1,0-0.2,0-0.3-0.1c-0.2-0.2-0.2-0.5,0-0.7l2.4-2.7c0.1-0.1,0.2-0.2,0.3-0.2
						c0.1,0,0.3,0,0.4,0.1l2.7,2.4c0.2,0.2,0.2,0.5,0,0.7c-0.2,0.2-0.5,0.2-0.7,0l-2.3-2.1l-2.1,2.3C11.3,22,11.1,22,11,22z"/>
				</g>
			</g>
		</g>
		<g>
			<g>
				<g>
					<path fill="#231815" d="M26.6,21.5C26.6,21.5,26.5,21.5,26.6,21.5c-0.3,0-0.5-0.3-0.5-0.6c0.2-1.6-0.2-3.3-1.1-4.6
						c-1-1.3-2.4-2.2-4.1-2.4c-1.6-0.2-3.3,0.2-4.6,1.1c-0.2,0.2-0.5,0.1-0.7-0.1c-0.2-0.2-0.1-0.5,0.1-0.7c1.5-1.1,3.4-1.6,5.3-1.3
						c1.9,0.3,3.6,1.3,4.7,2.8c1.1,1.5,1.6,3.4,1.3,5.3C27.1,21.3,26.8,21.5,26.6,21.5z"/>
				</g>
				<g>
					<path fill="#231815" d="M20,27.2c-0.4,0-0.7,0-1.1-0.1c-1.9-0.3-3.6-1.3-4.7-2.8c-1.1-1.5-1.6-3.4-1.3-5.3
						c0-0.3,0.3-0.5,0.6-0.4c0.3,0,0.5,0.3,0.4,0.6c-0.2,1.6,0.2,3.3,1.1,4.6c1,1.3,2.4,2.2,4.1,2.4c1.6,0.2,3.3-0.2,4.6-1.1
						c0.2-0.2,0.5-0.1,0.7,0.1c0.2,0.2,0.1,0.5-0.1,0.7C23,26.7,21.5,27.2,20,27.2z"/>
				</g>
			</g>
		</g>
	</g>
</g>
</svg>
