<?xml version="1.0" encoding="utf-8"?>
<!-- Generator: Adobe Illustrator 18.0.0, SVG Export Plug-In . SVG Version: 6.00 Build 0)  -->
<!DOCTYPE svg PUBLIC "-//W3C//DTD SVG 1.1//EN" "http://www.w3.org/Graphics/SVG/1.1/DTD/svg11.dtd">
<svg version="1.1" id="图层_1" xmlns="http://www.w3.org/2000/svg" xmlns:xlink="http://www.w3.org/1999/xlink" x="0px" y="0px"
	 viewBox="0 0 40 40" enable-background="new 0 0 40 40" xml:space="preserve">
<g>
	<g>
		<g>
			<path d="M21.1,27.2L21.1,27.2c-0.8,0-1.3-0.3-1.4-0.3c-0.1,0-0.1-0.1-0.2-0.2c0-0.1-0.4-0.6-0.3-1.5c-1-0.1-1.9-0.7-2.8-1.5
				c-0.9-0.9-1.4-1.8-1.5-2.8c-0.9,0-1.5-0.3-1.5-0.3c-0.1,0-0.1-0.1-0.2-0.2c-0.1-0.1-1.4-2.3,1.7-5.4c1.3-1.3,2.7-1.5,3.8-0.6
				c0,0,0,0,0,0c0.2-0.2,0.3-0.3,0.4-0.3c2.6-2.1,4.8-2.5,6.2-2.5c1.6,0,2.5,0.6,2.5,0.6c0.1,0,0.1,0.1,0.2,0.2
				c0.1,0.1,2.1,3.6-2,8.7l0,0c-0.1,0.1-0.2,0.2-0.3,0.4c0,0,0,0,0,0c0.9,1.2,0.7,2.5-0.6,3.8C23.4,26.8,22,27.2,21.1,27.2z
				 M20.3,26c0.1,0.1,0.4,0.1,0.8,0.1l0,0c0.7,0,1.9-0.3,3.3-1.7c1.3-1.3,0.8-2.2,0.3-2.7c-0.3-0.3-0.1-0.7,0.3-1
				c0.1-0.1,0.2-0.2,0.2-0.2c0,0,0-0.1,0.1-0.1c3.3-4.1,2.3-6.9,2-7.5c-0.2-0.1-0.9-0.4-1.9-0.4c-1.2,0-3.2,0.4-5.6,2.4
				c0,0-0.1,0-0.1,0.1c-0.1,0-0.2,0.1-0.2,0.2c-0.4,0.3-0.5,0.4-0.7,0.4h0c-0.1,0-0.3-0.1-0.4-0.1c-0.8-0.8-1.7-0.7-2.7,0.3
				c-2.1,2.1-1.8,3.6-1.6,4c0.2,0.1,0.7,0.2,1.3,0.1c0.1,0,0.3,0,0.4,0.1c0.1,0.1,0.2,0.2,0.2,0.4c0,0.9,0.4,1.8,1.3,2.6
				c0.8,0.8,1.7,1.3,2.6,1.3c0.1,0,0.3,0.1,0.4,0.2c0.1,0.1,0.1,0.3,0.1,0.4C20.1,25.4,20.2,25.8,20.3,26z"/>
		</g>
		<g>
			<path d="M12.6,27.9c-0.1,0-0.3,0-0.4-0.1c-0.2-0.2-0.2-0.5,0-0.7l2.5-2.5c0.2-0.2,0.5-0.2,0.7,0s0.2,0.5,0,0.7L13,27.7
				C12.9,27.8,12.8,27.9,12.6,27.9z"/>
		</g>
		<g>
			<path d="M12,24.7c-0.1,0-0.3,0-0.4-0.1c-0.2-0.2-0.2-0.5,0-0.7l1.3-1.3c0.2-0.2,0.5-0.2,0.7,0s0.2,0.5,0,0.7l-1.3,1.3
				C12.3,24.7,12.1,24.7,12,24.7z"/>
		</g>
		<g>
			<path d="M15.8,28.5c-0.1,0-0.3,0-0.4-0.1c-0.2-0.2-0.2-0.5,0-0.7l1.3-1.3c0.2-0.2,0.5-0.2,0.7,0s0.2,0.5,0,0.7l-1.3,1.3
				C16,28.5,15.9,28.5,15.8,28.5z"/>
		</g>
		<g>
			<path d="M22.1,20.2c-0.6,0-1.2-0.2-1.6-0.7c-0.9-0.9-0.9-2.3,0-3.2c0.9-0.9,2.4-0.9,3.2,0c0.4,0.4,0.7,1,0.7,1.6
				s-0.2,1.2-0.7,1.6C23.3,19.9,22.7,20.2,22.1,20.2z M22.1,16.6c-0.3,0-0.7,0.1-0.9,0.4c-0.5,0.5-0.5,1.3,0,1.8
				c0.5,0.5,1.3,0.5,1.8,0c0.2-0.2,0.4-0.6,0.4-0.9S23.3,17.2,23,17S22.5,16.6,22.1,16.6z"/>
		</g>
	</g>
</g>
</svg>
