<?xml version="1.0" encoding="utf-8"?>
<!-- Generator: Adobe Illustrator 18.0.0, SVG Export Plug-In . SVG Version: 6.00 Build 0)  -->
<!DOCTYPE svg PUBLIC "-//W3C//DTD SVG 1.1//EN" "http://www.w3.org/Graphics/SVG/1.1/DTD/svg11.dtd">
<svg version="1.1" id="图层_1" xmlns="http://www.w3.org/2000/svg" xmlns:xlink="http://www.w3.org/1999/xlink" x="0px" y="0px"
	 viewBox="0 0 40 40" enable-background="new 0 0 40 40" xml:space="preserve">
<g>
	<g>
		<g>
			<path d="M20,28.5c-0.3,0-0.5-0.2-0.5-0.5V12c0-0.3,0.2-0.5,0.5-0.5s0.5,0.2,0.5,0.5v16C20.5,28.3,20.3,28.5,20,28.5z"/>
		</g>
		<g>
			<path d="M20,14.6c-0.1,0-0.2,0-0.3-0.1l-2-1.1c-0.2-0.1-0.3-0.4-0.2-0.7c0.1-0.2,0.4-0.3,0.7-0.2l1.7,1l1.7-1
				c0.2-0.1,0.5-0.1,0.7,0.2c0.1,0.2,0.1,0.5-0.2,0.7l-2,1.1C20.2,14.6,20.1,14.6,20,14.6z"/>
		</g>
		<g>
			<path d="M22,27.5c-0.1,0-0.2,0-0.2-0.1l-1.7-1l-1.7,1c-0.2,0.1-0.5,0.1-0.7-0.2c-0.1-0.2-0.1-0.5,0.2-0.7l2-1.1
				c0.2-0.1,0.3-0.1,0.5,0l2,1.1c0.2,0.1,0.3,0.4,0.2,0.7C22.3,27.4,22.1,27.5,22,27.5z"/>
		</g>
	</g>
	<g>
		<g>
			<path d="M26.9,24.5c-0.1,0-0.2,0-0.2-0.1l-13.9-8c-0.2-0.1-0.3-0.4-0.2-0.7c0.1-0.2,0.4-0.3,0.7-0.2l13.9,8
				c0.2,0.1,0.3,0.4,0.2,0.7C27.3,24.4,27.1,24.5,26.9,24.5z"/>
		</g>
		<g>
			<path d="M13,18.7c-0.2,0-0.3-0.1-0.4-0.3c-0.1-0.2-0.1-0.5,0.2-0.7l1.7-1v-2c0-0.3,0.2-0.5,0.5-0.5s0.5,0.2,0.5,0.5v2.3
				c0,0.2-0.1,0.3-0.3,0.4l-2,1.1C13.1,18.7,13,18.7,13,18.7z"/>
		</g>
		<g>
			<path d="M25.1,25.7c-0.3,0-0.5-0.2-0.5-0.5v-2.3c0-0.2,0.1-0.3,0.3-0.4l2-1.1c0.2-0.1,0.5-0.1,0.7,0.2c0.1,0.2,0.1,0.5-0.2,0.7
				l-1.7,1v2C25.6,25.5,25.4,25.7,25.1,25.7z"/>
		</g>
	</g>
	<g>
		<g>
			<path d="M13.1,24.5c-0.2,0-0.3-0.1-0.4-0.3c-0.1-0.2-0.1-0.5,0.2-0.7l13.9-8c0.2-0.1,0.5-0.1,0.7,0.2c0.1,0.2,0.1,0.5-0.2,0.7
				l-13.9,8C13.2,24.5,13.2,24.5,13.1,24.5z"/>
		</g>
		<g>
			<path d="M14.9,25.7c-0.3,0-0.5-0.2-0.5-0.5v-2l-1.7-1c-0.2-0.1-0.3-0.4-0.2-0.7s0.4-0.3,0.7-0.2l2,1.1c0.2,0.1,0.3,0.3,0.3,0.4
				v2.3C15.4,25.5,15.2,25.7,14.9,25.7z"/>
		</g>
		<g>
			<path d="M27,18.7c-0.1,0-0.2,0-0.2-0.1l-2-1.1c-0.2-0.1-0.3-0.3-0.3-0.4v-2.3c0-0.3,0.2-0.5,0.5-0.5s0.5,0.2,0.5,0.5v2l1.7,1
				c0.2,0.1,0.3,0.4,0.2,0.7C27.4,18.6,27.2,18.7,27,18.7z"/>
		</g>
	</g>
</g>
</svg>
