<?xml version="1.0" encoding="iso-8859-1"?>
<!-- Generator: Adobe Illustrator 17.1.0, SVG Export Plug-In . SVG Version: 6.00 Build 0)  -->
<!DOCTYPE svg PUBLIC "-//W3C//DTD SVG 1.1//EN" "http://www.w3.org/Graphics/SVG/1.1/DTD/svg11.dtd">
<svg version="1.1" id="Capa_1" xmlns="http://www.w3.org/2000/svg" xmlns:xlink="http://www.w3.org/1999/xlink" x="0px" y="0px"
	 viewBox="0 0 475.605 475.605" style="enable-background:new 0 0 475.605 475.605;" xml:space="preserve">
<g>
	<path d="M448.551,460.605h-39.668V342.613c1.118-0.435,2.15-1.136,2.982-2.112c20.382-23.922,4.84-42.2-1.796-50.005
		c-1.038-1.22-2.214-2.604-2.594-3.244c-1.853-3.119-1.99-10.1-1.498-14.045c0.397-3.067-1.131-6.064-3.846-7.545
		c-2.717-1.482-6.063-1.144-8.427,0.851c-10.364,8.74-16.029,19.22-16.837,31.149c-1.541,22.765,15.699,42.116,16.433,42.928
		c0.182,0.201,0.386,0.367,0.583,0.543v119.472h-20.728v-15.368c0-35.193-9.385-62.355-27.894-80.732
		c-23.593-23.425-53.203-23.475-54.407-23.474h-37.571v-23.937c24-9.945,39.175-26.501,48.42-40.857
		c14.433-22.41,17.689-43.977,17.82-44.884c0.052-0.357,0.078-0.716,0.078-1.076v-1.606c5.268-1.299,9.851-4.017,13.49-8.046
		c10.619-11.757,10.002-30.306,9.245-37.735c-0.578-5.654-3.136-10.399-7.399-13.722c-1.145-0.892-2.363-1.64-3.62-2.268
		c7.026-1.045,13.064-3.688,18.053-7.917c13.382-11.344,13.375-29.714,13.368-30.424c0-15.534-6.291-30.941-18.698-45.794
		c-10.454-12.514-24.99-24.366-43.206-35.226c-10.262-6.118-21.404-11.717-32.799-16.589c1.736-7.367,1.197-21.38-11.944-29.77
		c-3.489-2.229-8.127-1.207-10.357,2.285c-2.229,3.492-1.206,8.129,2.285,10.357c5.274,3.368,5.919,8.359,5.723,11.447
		c-19.019-6.989-38.029-11.732-54.218-13.235C147.897,7.24,109.013,24.278,91.405,40.327c-8.546,7.789-13.063,15.987-13.063,23.706
		c0,16.363,10.924,25.823,18.45,30.402c-1.99,5.613-4.557,14.246-5.755,24.099c-2.255,18.536,1.215,34.29,10.028,46.285
		c-3.241,0.785-6.557,2.122-9.414,4.348c-4.263,3.323-6.821,8.067-7.398,13.723c-0.757,7.429-1.373,25.978,9.245,37.734
		c3.68,4.074,8.326,6.804,13.667,8.085v1.567c0,0.36,0.026,0.72,0.078,1.076c0.131,0.907,3.388,22.474,17.82,44.884
		c9.245,14.356,24.419,30.912,48.419,40.857v23.937h-37.518c-1.219,0.008-30.869,0.051-54.461,23.474
		c-18.509,18.377-27.894,45.54-27.894,80.732v15.368H27.054c-4.142,0-7.5,3.358-7.5,7.5c0,4.142,3.358,7.5,7.5,7.5h421.497
		c4.142,0,7.5-3.358,7.5-7.5C456.051,463.963,452.693,460.605,448.551,460.605z M391.837,298.606
		c0.16-2.282,0.597-4.473,1.315-6.585c0.407,1.001,0.879,1.971,1.426,2.891c1.028,1.73,2.435,3.385,4.064,5.301
		c7.589,8.925,12.358,16.305,3.879,27.94C398.78,323.188,390.954,311.177,391.837,298.606z M321.958,210.571
		c-0.721,0.798-1.509,1.456-2.358,2.008v-33.596c2.325,0.268,4.651,0.866,6.132,2.029c0.717,0.563,1.477,1.408,1.68,3.4
		C328.304,193.152,327.339,204.613,321.958,210.571z M101.509,51.413c22.986-20.95,65.093-27.372,96.626-24.444
		c27.562,2.56,65.747,16.004,95.016,33.454c20.386,12.154,54.586,37.167,54.586,68.162c0,0.122-0.118,12.292-8.144,19.02
		c-4.649,3.897-11.366,5.425-19.993,4.57v-12.531c3.371,2.267,7.952,1.445,10.309-1.891c2.389-3.384,1.583-8.063-1.8-10.453
		c-27.134-19.163-53.712-31.635-78.184-39.628c-0.663-0.334-1.383-0.57-2.141-0.695c-29.058-9.228-55.044-12.153-75.288-12.46
		c-33.75-0.514-57.729,5.805-65.824,8.298c-4.285-2.164-13.33-8.01-13.33-18.78C93.341,61.532,95.487,56.902,101.509,51.413z
		 M109.261,142.951c-0.671,0.573-1.208,1.243-1.625,1.967c-5.829-18.499,1.252-40.221,4.238-47.993
		c7.632-2.253,29.127-7.66,58.773-7.423c-27.061,3.519-37.678,9.418-39.202,10.341c-2.245,1.359-3.616,3.792-3.616,6.416v20.843
		L109.261,142.951z M104.629,210.571c-5.381-5.958-6.346-17.419-5.454-26.159c0.203-1.993,0.963-2.837,1.68-3.4
		c1.518-1.193,3.927-1.793,6.31-2.05v33.729C106.246,212.117,105.4,211.424,104.629,210.571z M137.972,268.577
		c-11.735-18.011-15.267-35.842-15.808-38.914v-78.004l18.034-15.394c1.669-1.425,2.631-3.51,2.631-5.705v-19.458
		c2.694-1.027,6.956-2.42,13.097-3.803c10.998-2.478,30.435-5.431,60.576-5.431h28.567c18.76,6.112,38.864,15.024,59.531,27.849
		v99.944c-0.548,3.107-4.083,20.921-15.807,38.915c-16.809,25.798-41.947,39.985-74.714,42.169h-1.393
		C179.919,308.562,154.781,294.375,137.972,268.577z M180.982,356.031c4.142,0,7.5-3.358,7.5-7.5v-26.469
		c7.174,1.836,14.974,3.118,23.473,3.668c0.162,0.01,0.323,0.016,0.485,0.016h1.885c0.162,0,0.323-0.005,0.485-0.016
		c8.499-0.551,16.299-1.832,23.473-3.668v26.469c0,4.142,3.358,7.5,7.5,7.5h28.056c-2.945,30.767-28.931,54.91-60.456,54.91
		c-11.754,0-23.155-3.36-32.97-9.717c-5.105-3.306-10.89-0.719-17.016,2.272c0.046-0.188,0.092-0.371,0.135-0.544
		c1.776-7.148,3.31-13.321,0.099-17.895c-6.068-8.644-9.711-18.582-10.703-29.026H180.982z M68.61,445.237
		c0-88.177,64.527-89.206,67.301-89.206h1.953c0.99,13.033,5.292,25.476,12.605,36.358c-0.192,1.701-0.988,4.905-1.495,6.946
		c-2.005,8.067-3.736,15.035,1.086,19.642c5.366,5.126,12.674,1.545,19.121-1.612c1.433-0.702,3.591-1.759,5.039-2.321
		c11.794,7.136,25.284,10.897,39.162,10.897c39.8,0,72.505-30.864,75.496-69.91h2.03c0.002,0,0.005,0,0.009,0
		c0.59,0,24.707,0.186,43.775,19.118c15.568,15.457,23.462,39.039,23.462,70.088v15.368H68.61V445.237z"/>
	<circle cx="160.146" cy="167.928" r="8.952"/>
	<circle cx="266.62" cy="167.928" r="8.951"/>
	<path d="M211.448,220.656h3.868c9.925,0,18-8.075,18-18c0-4.142-3.358-7.5-7.5-7.5c-4.142,0-7.5,3.358-7.5,7.5c0,1.654-1.346,3-3,3
		h-3.868c-1.654,0-3-1.346-3-3c0-4.142-3.358-7.5-7.5-7.5c-4.142,0-7.5,3.358-7.5,7.5
		C193.448,212.581,201.523,220.656,211.448,220.656z"/>
	<path d="M259.877,260.668c2.601-3.225,2.095-7.946-1.129-10.546c-3.226-2.601-7.947-2.094-10.546,1.129
		c-0.08,0.1-9.089,9.939-32.971,9.939c-24.809,0-36.903-10.295-37.494-10.812c-3.061-2.749-7.773-2.519-10.552,0.528
		c-2.791,3.061-2.572,7.805,0.489,10.595c0.658,0.6,16.468,14.689,47.557,14.689C246.456,276.191,258.595,262.257,259.877,260.668z"
		/>
</g>
<g>
</g>
<g>
</g>
<g>
</g>
<g>
</g>
<g>
</g>
<g>
</g>
<g>
</g>
<g>
</g>
<g>
</g>
<g>
</g>
<g>
</g>
<g>
</g>
<g>
</g>
<g>
</g>
<g>
</g>
</svg>
