<?xml version="1.0" encoding="iso-8859-1"?>
<!-- Generator: Adobe Illustrator 17.1.0, SVG Export Plug-In . SVG Version: 6.00 Build 0)  -->
<!DOCTYPE svg PUBLIC "-//W3C//DTD SVG 1.1//EN" "http://www.w3.org/Graphics/SVG/1.1/DTD/svg11.dtd">
<svg version="1.1" id="Capa_1" xmlns="http://www.w3.org/2000/svg" xmlns:xlink="http://www.w3.org/1999/xlink" x="0px" y="0px"
	 viewBox="0 0 428.129 428.129" style="enable-background:new 0 0 428.129 428.129;" xml:space="preserve">
<path id="XMLID_281_" d="M166.631,221.519c-4.431-2.252-6.196-7.67-3.943-12.101c2.253-4.432,7.671-6.195,12.102-3.944
	c23.07,11.729,50.518,11.769,73.424,0.11c4.428-2.254,9.849-0.493,12.104,3.938c2.255,4.43,0.492,9.849-3.938,12.104
	c-13.973,7.112-29.322,10.668-44.695,10.668C196.232,232.293,180.758,228.701,166.631,221.519z M262.201,270.283H43.494V43.004
	h336.225v135.941c0,4.971,4.029,9,9,9s9-4.029,9-9V34.004c0-4.971-4.029-9-9-9H34.494c-4.971,0-9,4.029-9,9v245.279
	c0,4.971,4.029,9,9,9h227.707c4.971,0,9-4.029,9-9S267.172,270.283,262.201,270.283z M28.376,327.06h162.28
	c0.994,3.89,4.521,6.765,8.721,6.765h24.461c4.199,0,7.727-2.875,8.721-6.765h29.643c4.971,0,9-4.029,9-9s-4.029-9-9-9H28.376
	C12.729,309.06,0,321.79,0,337.437c0,15.647,12.729,28.377,28.376,28.377h233.825c4.971,0,9-4.029,9-9s-4.029-9-9-9H28.376
	c-5.722,0-10.376-4.655-10.376-10.378C18,331.715,22.654,327.06,28.376,327.06z M316.063,178.363
	c-4.202-3.008-15.798-6.245-31.325-6.245c-17.629,0-24.204,4.081-31.165,8.401c-13.097,8.128-27.487,12.191-41.896,12.192
	c-14.481,0.001-28.981-4.103-42.22-12.309c-6.57-4.073-13.364-8.285-30.979-8.285c-15.528,0-27.124,3.237-31.327,6.245
	c-4.041,2.894-9.664,1.96-12.556-2.081c-2.894-4.042-1.962-9.664,2.08-12.557c7.676-5.493,21.371-8.964,37.221-9.526
	c2.396-40.785,36.335-73.232,77.712-73.232c41.375,0,75.314,32.447,77.709,73.232c15.85,0.562,29.546,4.034,37.221,9.526
	c4.043,2.893,4.975,8.515,2.082,12.557C325.727,180.324,320.107,181.256,316.063,178.363z M271.328,154.938
	c-2.003-31.201-28.022-55.972-59.72-55.972c-31.696,0-57.717,24.768-59.723,55.965c12.318,1.647,19.699,5.612,27.055,10.172
	c20.468,12.688,44.82,12.732,65.14,0.122C251.514,160.613,258.963,156.602,271.328,154.938z M428.129,279.741v57.455
	c0,36.354-29.576,65.929-65.93,65.929c-36.355,0-65.931-29.576-65.931-65.929v-57.455c0-36.354,29.575-65.929,65.928-65.929h0.003
	C398.553,213.812,428.129,243.387,428.129,279.741z M410.129,279.741c0-26.428-21.501-47.929-47.93-47.929h-0.003
	c-26.428,0-47.928,21.501-47.928,47.929v57.455c0,26.428,21.5,47.929,47.928,47.929c26.432,0,47.933-21.501,47.933-47.929V279.741z
	 M362.196,252.815c-4.971,0-9,4.029-9,9v22.246c0,4.971,4.029,9,9,9s9-4.029,9-9v-22.246
	C371.196,256.844,367.167,252.815,362.196,252.815z"/>
</svg>
