<?xml version="1.0" encoding="utf-8"?>
<!-- Generator: Adobe Illustrator 16.0.0, SVG Export Plug-In . SVG Version: 6.00 Build 0)  -->
<!DOCTYPE svg PUBLIC "-//W3C//DTD SVG 1.1//EN" "http://www.w3.org/Graphics/SVG/1.1/DTD/svg11.dtd">
<svg version="1.1" id="Group_2_1_" xmlns="http://www.w3.org/2000/svg" xmlns:xlink="http://www.w3.org/1999/xlink" x="0px" y="0px"
	 width="498px" height="239px" viewBox="0 0 498 239" enable-background="new 0 0 498 239" xml:space="preserve">
<g id="motion_copy">
	<g>
		<path fill="#CC3B3B" d="M70.888-0.008c-39.269,0-69.889,24.569-69.889,63.413c0,7.256-0.03,174.726-0.03,174.726l38.936-0.041
			l0.018-115.395l20.488-0.09l-0.038-39.052l-20.455,0.07c0,0,0.045-7.594,0.045-12.394c0-28.183,18.544-32.193,37.232-32.193
			c4.174,0,10.705,0.044,10.705,0.044L87.868,0.057L70.888-0.008z M111.316,0.616l-0.131,237.504l15.309,0.088
			c0,0,15.698-0.025,25.592-0.025c0-12.697-0.039-228.106-0.039-238.017C144.008,0.166,111.316,0.616,111.316,0.616z
			 M187.186,83.558c-0.361,112.208-0.024,154.415-0.024,154.415l40.796,0.105l-0.211-154.543L187.186,83.558z M397.127,109.618
			c-11.922-16.408-32.462-25.983-56.812-25.983h-4.17c-7.003,0.145-27.474,4.466-32.497,9.177c0-2.821-0.071-9.271-0.071-9.271
			l-42.615,0.073l0.003,154.472l40.865,0.012l-0.045-72.781c0-23.651,1.473-46.465,34.085-46.465h0.768
			c30.542,0,33.305,16.253,33.305,40.638l0.025,78.616l39.178-0.16l-0.39-89.364C408.755,148.581,406.571,122.018,397.127,109.618z
			 M472.936,167.062c0-13.317-0.334-46.34-0.334-46.34h16.918l-0.111-37.139h-16.645l0.209-27.802l-39.037,0.021
			c0,0,0.095,125.662,0.095,126.064c0,51.563,40.906,56.387,62.813,56.387c0-13.007,0.195-37.279,0.195-38.209
			C474.683,200.044,472.936,180.378,472.936,167.062z"/>
	</g>
</g>
<g id="Ellipse_1">
	<g>
		<path fill="#CC3B3B" d="M208.908,15.09c0,0-20.379,14.977-20.484,27.549c-0.105,12.571,7.511,22.828,20.062,22.934
			s20.337-10.021,20.442-22.593C229.033,30.407,208.908,15.09,208.908,15.09z"/>
	</g>
</g>
</svg>
