<?xml version="1.0" encoding="iso-8859-1"?>
<!-- Generator: Adobe Illustrator 18.1.1, SVG Export Plug-In . SVG Version: 6.00 Build 0)  -->
<svg version="1.1" id="Capa_1" xmlns="http://www.w3.org/2000/svg" xmlns:xlink="http://www.w3.org/1999/xlink" x="0px" y="0px"
	 viewBox="0 0 43.654 43.654" style="enable-background:new 0 0 43.654 43.654;" xml:space="preserve">
<g>
	<g>
		<path style="fill:#030104;" d="M17.787,23.023L18.453,2.37c0-1.3-1.07-2.37-2.387-2.37c-1.315,0-2.386,1.07-2.386,2.387
			l0.781,24.184L17.787,23.023z"/>
		<path style="fill:#030104;" d="M14.934,41.252c0,1.865,0.148,2.402,1.131,2.402c0.985,0.001,1.133-0.536,1.133-2.385l0.345-10.708
			l-2.867,2.687L14.934,41.252z"/>
		<path style="fill:#030104;" d="M37.099,7.482c-0.449-0.45-1.05-0.698-1.687-0.698c-0.638,0-1.237,0.248-1.688,0.698l-14.95,15.95
			l-0.519,0.553l-0.518,0.552l-3.231,3.447L14.022,28.5l-0.484,0.517L7.13,35.854c-0.476,0.477-1.001,1.001-1.194,1.451
			C5.8,37.62,5.799,37.918,6.232,38.352c0.253,0.252,0.483,0.375,0.705,0.375c0.52,0,1.189-0.67,1.781-1.262l4.945-4.637
			l0.485-0.455l0.486-0.455l2.955-2.77l0.515-0.482l0.516-0.484l18.49-17.335c0.438-0.439,0.688-1.038,0.688-1.676
			C37.798,8.533,37.55,7.934,37.099,7.482z"/>
	</g>
</g>
<g>
</g>
<g>
</g>
<g>
</g>
<g>
</g>
<g>
</g>
<g>
</g>
<g>
</g>
<g>
</g>
<g>
</g>
<g>
</g>
<g>
</g>
<g>
</g>
<g>
</g>
<g>
</g>
<g>
</g>
</svg>
