<?xml version="1.0" encoding="iso-8859-1"?>
<!-- Generator: Adobe Illustrator 18.1.1, SVG Export Plug-In . SVG Version: 6.00 Build 0)  -->
<svg version="1.1" id="Capa_1" xmlns="http://www.w3.org/2000/svg" xmlns:xlink="http://www.w3.org/1999/xlink" x="0px" y="0px"
	 viewBox="0 0 54.43 54.43" style="enable-background:new 0 0 54.43 54.43;" xml:space="preserve">
<g>
	<path style="fill:#010002;" d="M54.43,29.918c0,0.607-0.633,1.329-2.771,2.006c-0.646-0.014-1.318-0.023-2.021-0.033
		c-3.117-0.035-6.752-0.119-10.646-0.135c-3.896-0.02-8.051-0.038-12.208-0.059c-0.231,0-0.463,0.002-0.694,0.002
		c0.226-0.424,0.387-0.898,0.578-1.385c0.872-3.499,0.531-6.65-1.378-9.775c-0.233-0.383-0.516-0.693-0.758-0.966
		c-0.02-0.025-0.038-0.042-0.058-0.066h1.765c0.7,0,2.043,0.199,3.786,0.552c-0.43,0.444-0.676,0.949-0.676,1.486
		c0,1.76,2.604,3.187,5.814,3.187c2.404,0,4.467-0.798,5.354-1.937c0.457,0.141,0.916,0.285,1.373,0.433
		C49.858,25.8,54.428,28.238,54.43,29.918z M1.808,31.925c-0.506-1.336-0.506-3.161-0.506-5.121c0-3.917,0-7.299,4.039-7.299h18.762
		c0.056,0.088,0.112,0.173,0.168,0.271c0.185,0.3,0.394,0.63,0.58,1.023c0.098,0.192,0.199,0.392,0.304,0.598
		c1.163,2.281,2.693,8.399-0.035,10.128c-1.303,0.825-3.843,0.153-5.295,0.151c-1.75-0.003-3.502,0.067-5.252,0.075
		c-3.895,0.02-7.53,0.102-10.647,0.136C3.188,31.901,2.484,31.913,1.808,31.925z M19.196,24.731c0,0.982,0.796,1.779,1.779,1.779
		h0.517c0.982,0,1.779-0.796,1.779-1.779c0-0.982-0.796-1.779-1.779-1.779h-0.517C19.992,22.952,19.196,23.749,19.196,24.731z
		 M14.22,24.731c0,0.982,0.796,1.779,1.778,1.779h0.518c0.981,0,1.779-0.796,1.779-1.779c0-0.982-0.797-1.779-1.779-1.779h-0.518
		C15.017,22.952,14.22,23.749,14.22,24.731z M9.243,24.731c0,0.982,0.796,1.779,1.779,1.779h0.517c0.982,0,1.779-0.796,1.779-1.779
		c0-0.982-0.796-1.779-1.779-1.779h-0.517C10.039,22.952,9.242,23.749,9.243,24.731z M4.267,24.731c0,0.982,0.796,1.779,1.779,1.779
		h0.517c0.982,0,1.779-0.796,1.779-1.779c0-0.982-0.796-1.779-1.779-1.779H6.046C5.063,22.952,4.267,23.749,4.267,24.731z
		 M2.003,32.358c0.555,1.08,1.549,1.746,3.339,1.746h18.76c0.055-0.088,0.11-0.171,0.166-0.268c0.185-0.303,0.396-0.637,0.583-1.027
		c0.038-0.074,0.079-0.154,0.119-0.232c-3.546-0.019-7.066-0.032-10.396-0.051c-3.897-0.018-7.533-0.1-10.649-0.137
		C3.258,32.38,2.619,32.367,2.003,32.358z M45.551,34.871c0.414-0.264,0.689-0.723,0.689-1.248c0-0.129-0.021-0.251-0.053-0.37
		c-0.012-0.037-0.021-0.073-0.033-0.108c-0.016-0.035-0.021-0.074-0.037-0.109c1.504-0.198,2.752-0.418,3.779-0.646
		c-0.092,0.001-0.176,0.003-0.266,0.005c-1.244,0.016-2.588,0.036-3.979,0.062c-2.099,0.032-4.328,0.065-6.67,0.075
		c-3.42,0.017-7.043,0.033-10.688,0.052c-0.507,0.002-1.011,0.005-1.518,0.007c-0.387-0.002-0.772-0.004-1.161-0.007
		c-0.113,0.17-0.226,0.336-0.332,0.493c-0.234,0.386-0.513,0.689-0.755,0.964c-0.021,0.024-0.04,0.043-0.061,0.067h1.765
		c0.309,0,0.91-0.002,1.713-0.012c0.015,0.037,0.021,0.076,0.037,0.112s0.039,0.071,0.06,0.108c0.071,0.133,0.166,0.25,0.272,0.354
		c-0.621-0.004-1.241-0.008-1.862-0.013c-3.306,0.021-6.612,0.041-9.713,0.061c-3.1,0.018-5.992,0.1-8.473,0.137
		c-2.48,0.041-4.546,0.127-5.993,0.162C0.825,35.074,0,35.105,0,35.105s0.826,0.029,2.272,0.086
		c1.447,0.034,3.513,0.123,5.993,0.162c2.48,0.036,5.373,0.118,8.473,0.137c3.101,0.021,6.406,0.039,9.713,0.061
		c3.307-0.021,6.614-0.04,9.713-0.061c3.1-0.016,5.99-0.1,8.473-0.135c2.479-0.039,4.549-0.127,5.994-0.164
		c1.445-0.056,2.271-0.086,2.271-0.086s-0.826-0.031-2.271-0.088C49.369,34.986,47.629,34.914,45.551,34.871z M27.279,16.215
		l-25.976,0.5l25.976,0.5V16.215z M47.778,19.007l-9.164,0.5l9.164,0.5C47.778,20.007,47.778,19.007,47.778,19.007z M36.113,38.215
		v-1l-29.333,0.5L36.113,38.215z"/>
</g>
<g>
</g>
<g>
</g>
<g>
</g>
<g>
</g>
<g>
</g>
<g>
</g>
<g>
</g>
<g>
</g>
<g>
</g>
<g>
</g>
<g>
</g>
<g>
</g>
<g>
</g>
<g>
</g>
<g>
</g>
</svg>
