<?xml version="1.0" encoding="iso-8859-1"?>
<!-- Generator: Adobe Illustrator 18.1.1, SVG Export Plug-In . SVG Version: 6.00 Build 0)  -->
<svg version="1.1" id="Capa_1" xmlns="http://www.w3.org/2000/svg" xmlns:xlink="http://www.w3.org/1999/xlink" x="0px" y="0px"
	 viewBox="0 0 44.067 44.067" style="enable-background:new 0 0 44.067 44.067;" xml:space="preserve">
<g>
	<path style="fill:#1D1C1A;" d="M20.93,25.671l0.404-0.061c0.001,0.29-0.02,0.757-0.094,1.393l-0.106,0.93
		c-0.112,0.974-0.408,1.593-0.449,1.661l-0.63,0.108c-2.069,0.352-3.836,0.835-5.4,1.478c-1.283,0.528-2.291,1.078-3.172,1.733
		c-0.951,0.707-1.524,1.531-1.752,2.516c-0.17,0.736-0.129,1.446,0.122,2.112c0.453,1.195,1.525,1.938,2.798,1.938
		c0.359,0,0.723-0.058,1.079-0.174c1.204-0.391,2.067-1.246,2.567-2.542c0.33-0.857,0.547-1.778,0.665-2.818
		c0.03-0.271,0.058-0.542,0.083-0.806c0.053-0.174,0.669-0.698,1.626-0.922c0.295-0.068,0.592-0.133,0.892-0.192
		c0.539-0.107,1.159-0.132,1.433-0.1c-0.001,0.047-0.001,0.094,0,0.14c0.006,0.255,0.007,0.513-0.017,0.766l-0.062,0.696
		c-0.056,0.655-0.114,1.333-0.224,1.979c-0.36,2.103-1.099,3.769-2.256,5.095c-1.341,1.536-2.946,2.402-4.906,2.649
		c-1.902,0.239-3.622-0.215-5.101-1.359c-1.376-1.065-2.225-2.504-2.521-4.278c-0.427-2.568,0.315-4.886,2.207-6.889
		c0.995-1.054,2.255-1.916,3.855-2.634c2.021-0.909,4.242-1.595,6.601-2.037C19.354,25.906,20.142,25.789,20.93,25.671z
		 M34.219,29.281c-1.241-0.846-2.678-1.513-4.636-2.149c-0.088,0.292-0.202,0.779-0.275,1.386c-0.037,0.312-0.07,0.632-0.098,0.943
		c-0.07,0.795,0.011,1.425,0.076,1.675l0.107,0.045c1.274,0.511,2.328,1.09,3.22,1.771c1.32,1.005,1.923,2.271,1.792,3.762
		c-0.114,1.297-1.033,2.37-2.286,2.672c-0.897,0.215-1.788,0.057-2.645-0.473c-0.853-0.528-1.447-1.314-1.817-2.403
		c-0.576-1.692-0.695-3.404-0.735-4.706c-0.022-0.716,0.023-1.436,0.067-2.131l0.024-0.389c0.021-0.371,0.073-0.742,0.126-1.112
		l0.166-1.218c0.029-0.214-0.24-0.658-0.729-0.863c-0.396-0.165-0.783-0.33-1.167-0.506c-0.374-0.171-0.745-0.351-1.117-0.535
		c-0.009-0.001-0.019-0.001-0.027-0.001c-0.297,0-0.636,0.371-0.749,1.049c-0.229,1.367-0.372,2.775-0.438,4.305
		c-0.081,1.881,0.006,3.527,0.266,5.032c0.23,1.336,0.62,2.512,1.189,3.595c1.535,2.913,4.761,4.654,7.841,4.214
		c1.822-0.26,3.266-1.057,4.287-2.369c1.78-2.287,2.102-4.862,0.955-7.656C36.996,31.705,35.884,30.417,34.219,29.281z
		 M28.72,11.269c0.479-1.541,0.585-2.958,0.326-4.335c-0.372-1.962-1.324-3.542-2.83-4.694c-1.709-1.308-3.586-1.757-5.552-1.327
		c-3.232,0.703-5.55,3.499-5.766,6.957c-0.075,1.213,0.101,2.425,0.537,3.706c0.397,1.167,0.974,2.311,1.814,3.601
		c0.407,0.626,1.258,0.7,1.771,0.152c0.219-0.233,0.432-0.469,0.641-0.708c0.646-0.741,0.842-1.474,0.808-1.627
		c-0.112-0.178-0.236-0.387-0.354-0.601c-0.65-1.176-1.122-2.196-1.309-3.353c-0.25-1.544,0.221-2.837,1.359-3.739
		c1.004-0.795,2.141-0.906,3.24-0.314c0.797,0.429,1.358,1.087,1.67,1.956c0.335,0.931,0.321,1.913-0.04,3.001
		c-0.462,1.389-1.185,2.769-2.211,4.216c-0.919,1.296-2.006,2.555-3.325,3.848l-0.062,0.063c0.044,0.152,0.157,0.433,0.373,0.79
		c0.219,0.361,0.431,0.717,0.635,1.078c0.205,0.363,0.401,0.731,0.6,1.104c0.116,0.22,0.218,0.397,0.301,0.532
		c1.819-1.661,3.473-3.538,4.914-5.58C27.472,14.278,28.253,12.776,28.72,11.269z M43.884,17.071L43.884,17.071
		c-0.664-2.898-3.231-5.045-6.391-5.342c-1.854-0.174-3.631,0.293-5.363,1.385c-1.264,0.797-2.407,1.861-3.598,3.349
		c-0.201,0.252-0.397,0.509-0.597,0.771c-0.02,0.097,0.237,0.578,1.003,0.933c0.292,0.136,0.586,0.267,0.881,0.391
		c0.477,0.201,1.011,0.321,1.432,0.321c0.23,0,0.347-0.038,0.372-0.052c0.13-0.156,0.289-0.334,0.45-0.511
		c0.724-0.787,1.62-1.674,2.789-2.288c1.225-0.642,2.48-0.671,3.625-0.085c1.581,0.811,2.131,2.399,1.4,4.046
		c-0.308,0.695-0.836,1.257-1.571,1.668c-0.81,0.454-1.754,0.636-2.815,0.567c-1.068-0.07-2.123-0.232-3.134-0.484
		c-1.483-0.371-2.996-0.931-4.76-1.763c-0.26-0.124-0.52-0.251-0.772-0.377c-0.256,0.004-0.907,0.315-1.523,0.983l-0.641,0.695
		c-0.402,0.436-0.706,0.799-0.896,1.045l0.393,0.212c0.561,0.305,1.122,0.61,1.698,0.884c2.752,1.307,5.135,2.105,7.497,2.514
		c1.613,0.278,3.095,0.266,4.465-0.032c2.154-0.472,3.834-1.59,4.991-3.326C43.968,20.854,44.326,19.002,43.884,17.071z
		 M9.936,26.048c1.431-0.149,2.816-0.547,3.898-0.897c-0.102-0.285-0.301-0.745-0.604-1.285c-0.152-0.274-0.31-0.544-0.472-0.812
		c-0.422-0.7-0.846-1.159-1.037-1.319c-0.062,0.015-0.122,0.029-0.183,0.042c-0.988,0.212-2.111,0.453-3.242,0.453
		c-0.384,0-0.759-0.028-1.115-0.083c-1.186-0.182-2.104-0.74-2.732-1.656c-0.605-0.883-0.762-1.847-0.452-2.789
		c0.29-0.882,0.939-1.538,1.879-1.897c1.17-0.447,2.38-0.333,3.543,0.341c0.787,0.456,1.437,1.043,1.914,1.505
		c1.42,1.372,2.659,3.049,3.9,5.279c0.17,0.304,0.334,0.611,0.496,0.921c0.151,0.291,0.69,0.473,1.121,0.373
		c0.408-0.097,0.814-0.19,1.222-0.273c0.409-0.083,0.819-0.154,1.232-0.224c0.24-0.04,0.438-0.08,0.59-0.115
		c-0.965-2.141-2.14-4.147-3.522-6.042c-1.167-1.603-2.242-2.776-3.383-3.694c-1.544-1.245-3.115-1.941-4.804-2.129
		c-0.325-0.037-0.647-0.055-0.966-0.055c-1.603,0-3.062,0.473-4.338,1.406c-2.168,1.583-3.12,3.699-2.83,6.288
		c0.236,2.12,1.282,3.862,3.11,5.178C4.968,25.865,7.123,26.343,9.936,26.048z"/>
</g>
<g>
</g>
<g>
</g>
<g>
</g>
<g>
</g>
<g>
</g>
<g>
</g>
<g>
</g>
<g>
</g>
<g>
</g>
<g>
</g>
<g>
</g>
<g>
</g>
<g>
</g>
<g>
</g>
<g>
</g>
</svg>
