<?xml version="1.0" encoding="utf-8"?>
<!-- Generator: Adobe Illustrator 16.0.0, SVG Export Plug-In . SVG Version: 6.00 Build 0)  -->
<!DOCTYPE svg PUBLIC "-//W3C//DTD SVG 1.1//EN" "http://www.w3.org/Graphics/SVG/1.1/DTD/svg11.dtd">
<svg version="1.1" id="Layer_1" xmlns="http://www.w3.org/2000/svg" xmlns:xlink="http://www.w3.org/1999/xlink" x="0px" y="0px"
	 width="1800px" height="1800px" viewBox="0 0 1800 1800" enable-background="new 0 0 1800 1800" xml:space="preserve">
<g>
	<g>
		<path fill="#241F20" d="M-11.605,0c-0.018,7.931,0.079,11.869,0.409,19.708c102.564-0.532,203.899,5.832,306.391-2.354
			c98.724-7.885,196.031-9.818,294.951-9.818c29.741,0,64.805-5.192,93.458,4.485c16.952,5.725,29.805,15.643,48.212,17.843
			c55.924,6.684,109.107-18.479,164.703-18.199c27.507,0.139,49.395,8.727,74.249,19.174c27.484,11.553,53.67,12.723,83.205,12.057
			c66.86-1.508,133.854-3.234,200.689-5.3c96.106-2.971,192.068-3.584,288.166-5.775c43.757-0.998,87.015,0.224,130.521-5.523
			c54.059-7.141,107.658-18.31,162.235-20.77C1835.519-2.004,1835.5-5.885,1835.5-14c-54.339,1.684-107.271,14.69-160.893,22.468
			C1631.1,14.778,1587.535,13.5,1543.7,13.5c-96.056,0-192.067,0.795-288.117,1.909c-66.548,0.771-132.81,3.823-199.293,5.332
			c-29.539,0.67-56.161-1.365-84.06-11.476c-25.189-9.129-48.537-17.442-75.743-17.861c-55.459-0.855-107.212,25.251-163.136,18.647
			C715.051,7.89,700.839-1.031,683.623-6.196c-29.335-8.8-63.271-4.465-93.478-4.465c-98.704,0-196.807,2.047-295.438,6.678
			C192.601,0.81,90.587,0-11.605,0z"/>
		<path fill="#241F20" d="M1822.823,17.526c-55.793,4.218-110.895,14.074-166.519,19.82c-42.049,4.343-84.501,2.843-126.721,4.876
			c-39.989,1.926-79.734,1.383-119.719,2.032c-58.56,0.949-116.97,6.54-175.469,9.01c-64.688,2.732-130.086,4.407-194.865,5.208
			c-29.252,0.362-51.957-4.028-78.031-17.054c-25.429-12.703-48.277-18.191-76.971-16.872
			c-53.207,2.446-109.635,27.764-162.953,15.481c-16.436-3.786-28.575-15.771-44.688-20.228
			c-30.527-8.445-67.905-2.823-99.302-2.823c-37.712,0-75.464,0.51-113.172-0.007c-63.911-0.876-127.42,9.778-190.845,16.446
			C173.913,43.894,76.176,29.87-23.417,32.11c0.499,7.776,0.814,11.618,1.511,19.258c46.333-0.441,91.995,6.773,137.959,11.622
			c54.147,5.712,105.503,3.528,159.213-5.63c62.389-10.638,125.527-27.694,189.148-27.375c37.722,0.189,75.45,0.004,113.172,0.005
			c30.397,0,69.564-6.656,98.675,3.483c15.497,5.397,25.183,19.265,41.127,23.971c51.65,15.246,114.583-10.673,167.069-12.646
			c28.729-1.08,49.499,4.606,73.295,20.2c24.402,15.991,45.09,20.62,74.36,20.351c66.04-0.605,133.702-0.844,199.452-6.183
			c59.5-4.832,118.73-14.062,178.397-16.741c39.388-1.769,78.161-1.667,117.501-5.613c41.694-4.182,83.351-3.778,125.073-6.958
			c56.894-4.337,113.526-11.51,170.505-14.788C1822.957,28.235,1822.912,24.756,1822.823,17.526z"/>
		<path fill="#241F20" d="M1823.246,51.031c-58.422,1.98-116.72,6.346-175.111,8.976c-41.606,1.874-81.977,2.732-123.192,9.33
			c-38.58,6.176-76.167,6.918-114.93,10.067c-60.976,4.954-121.091,17.976-181.747,25.586
			c-67.019,8.409-137.355,7.314-204.963,7.564c-29.377,0.108-48.014-4.975-70.024-24.3c-21.474-18.853-40.097-24.921-68.957-24.201
			c-28.619,0.714-56.865,5.159-85.242,8.494c-26.28,3.088-61.121,10.211-86.593,0.683c-15.529-5.809-22.183-21.655-37.075-28.233
			c-27.253-12.038-68.706-4.375-97.826-4.375c-37.714,0-75.46-0.463-113.171-0.004c-63.271,0.771-126.304,25.204-187.154,40.196
			c-54.879,13.521-102.982,17.123-158.68,7.849C72.446,80.981,26.869,70.127-20.097,69.461c0.808,7.565,1.24,11.329,2.083,18.87
			c48.111,2.182,93.79,17.209,140.387,28.088c23.127,5.399,47.465,11.063,71.391,10.273c29.999-0.991,60.138-12.299,88.248-21.758
			c58.612-19.723,121.686-52.458,184.528-54.037c37.872-0.951,75.895,0,113.781,0c27.08,0,71.45-8.695,95.544,6.283
			c14.135,8.788,16.775,26.329,33.077,33.049c25.371,10.458,63.069,2.446,89.652,0.12c30.038-2.628,60.296-6.562,90.503-6.17
			c25.638,0.333,41.124,7.085,57.325,26.73c18.51,22.444,33.092,30.572,62.916,31.035c68.874,1.069,142.975,2.975,210.828-8.511
			c62.522-10.583,123.977-27.783,186.901-35.981c38.654-5.036,75.477-6.264,113.69-15.342
			c40.949-9.729,79.291-11.872,121.298-12.318c60.47-0.643,120.93-1.967,181.402-2.369
			C1823.372,60.887,1823.331,57.637,1823.246,51.031z"/>
		<path fill="#241F20" d="M1823.657,83.059c-62.136-1.124-124.262-2.693-186.396-3.933c-42.599-0.85-78.557,2.022-119.186,14.983
			c-37.4,11.931-72.736,13.812-111.032,20.299c-64.396,10.908-126.709,31.963-190.532,45.57
			c-68.885,14.686-146.403,11.636-216.828,9.874c-30.474-0.763-42.781-10.317-57.815-35.619
			c-13.172-22.167-26.812-29.998-52.854-30.773c-31.357-0.933-63.018,2.421-94.292,4.271c-26.117,1.544-67.02,10.206-91.211-1.944
			c-16.245-8.159-15.256-27.315-28.726-37.625c-21.86-16.733-68.708-7.418-94.465-7.417c-37.809,0.001-76.012-1.614-113.781,0.001
			c-27.542,1.178-54.237,12.572-79.407,22.846c-34.678,14.155-68.493,30.316-102.994,44.886
			c-26.95,11.381-57.517,26.362-87.312,27.784c-23.938,1.143-49.065-6.865-71.699-13.587c-46.702-13.87-92.163-32.729-141.172-36.36
			c0.799,7.571,1.185,11.366,1.855,19.025c49.97,4.871,95.169,27.509,141.916,44.21c22.109,7.899,48.011,18.099,71.987,16.659
			c29.699-1.785,60.636-20.29,86.444-33.374c34.121-17.299,67.357-36.316,101.708-53.167c24.36-11.95,51.029-25.979,78.675-27.552
			c37.647-2.142,76.061,0,113.779,0c24.641,0,73.684-9.772,93.493,8.439c12.834,11.799,8.33,32.404,24.544,42.021
			c22.901,13.583,67.133,4.485,92.699,3.61c32.458-1.111,65.423-3.894,97.895-2.466c26.72,1.175,38.522,10.315,48.64,34.563
			c11.518,27.602,21.598,38.901,52.992,39.939c33.661,1.113,67.585-0.395,101.262-0.675c41.627-0.346,80.457-0.073,121.196-10.389
			c65.087-16.481,128.165-41.327,194.018-54.768c20.417-4.167,41.271-3.749,61.552-8.313c16.292-3.667,31.543-10.308,46.941-16.571
			c40.202-16.351,73.801-19.591,117.16-17.542c63.737,3.013,127.4,7.43,191.162,9.948
			C1823.786,93.026,1823.742,89.683,1823.657,83.059z"/>
		<path fill="#241F20" d="M1824.081,116.748c-65.049-3.426-129.843-10.261-194.829-14.577c-43.95-2.919-75.944,0.369-115.572,19.542
			c-14.719,7.122-29.239,14.662-45.159,18.821c-20.115,5.255-41.057,4.674-61.388,9.294
			c-67.05,15.239-130.646,43.272-196.736,61.936c-41.36,11.68-80.323,11.29-122.809,11.455
			c-34.508,0.134-69.295,1.572-103.779,0.302c-32.383-1.193-40.613-14-49.368-43.151c-7.715-25.688-18.016-35.938-45.509-37.341
			c-33.349-1.702-67.261,0.555-100.636,1.091c-16.907,0.271-33.816,0.508-50.726,0.516c-13.286,0.006-31.294,2.594-43.118-5.243
			c-16.234-10.761-8.917-32.506-21.273-45.46c-18.287-19.17-69.001-9.107-92.858-9.107c-37.679,0-76.186-2.333-113.781,0
			c-27.87,1.729-54.382,17.574-78.171,30.801c-34.115,18.968-66.854,40.289-100.685,59.743
			c-25.007,14.38-56.014,35.379-85.825,37.349c-24.132,1.594-50.407-10.042-72.193-18.844
			c-46.714-18.874-91.665-44.689-142.479-50.15c0.471,7.795,0.65,11.73,0.83,19.724c51.522,5.098,96.257,33.627,142.843,53.991
			c21.801,9.53,47.819,21.531,72.306,19.978c30.227-1.917,60.821-23.992,85.504-39.416c33.637-21.02,65.947-44.125,99.931-64.599
			c23.574-14.202,49.674-30.738,77.941-32.277c37.671-2.05,76.044,0,113.781,0c23.283,0,75.409-10.262,92.651,9.324
			c12.092,13.736,2.575,36.393,18.95,47.904c11.539,8.111,29.918,5.239,43.033,5.259c17.195,0.027,34.39-0.023,51.584-0.083
			c34.013-0.119,68.465-1.826,102.439-0.189c28.286,1.362,37.59,12.161,43.596,38.957c6.798,30.329,13.712,43.969,47.08,45.115
			c35.062,1.204,70.38-0.026,105.464-0.055c42.802-0.035,82.02,0.723,123.541-11.74c66.826-20.059,130.65-50.856,198.646-66.976
			c20.303-4.813,41.313-3.69,61.333-9.329c15.723-4.429,29.682-12.65,43.899-20.41c38.908-21.237,70.26-24.369,114.452-20.957
			c65.854,5.084,131.355,14,197.32,17.718C1824.217,127.789,1824.17,124.035,1824.081,116.748z"/>
		<path fill="#241F20" d="M1824.34,154.796c-66-3.713-131.525-12.731-197.411-17.834c-44.192-3.423-75.54-0.303-114.407,21.014
			c-14.197,7.787-28.135,16.035-43.852,20.47c-20.098,5.671-41.197,4.477-61.583,9.303c-67.73,16.035-131.165,47.082-197.694,67.137
			c-41.557,12.527-80.922,11.733-123.771,11.733c-35.194,0-70.667,1.308-105.834,0c-33.106-1.231-40.215-14.798-46.924-44.901
			c-5.912-26.529-15.373-37.432-43.405-38.769c-34.219-1.631-68.949-0.085-103.22-0.243c-17.308-0.08-34.616-0.146-51.925-0.107
			c-13.124,0.029-30.93,2.912-42.505-5.164c-16.346-11.404-7.672-34.068-19.872-47.705c-17.517-19.582-68.959-9.383-92.435-9.384
			c-37.746-0.001-76.097-1.997-113.781,0c-28.407,1.505-54.48,17.936-78.116,32.307c-33.671,20.473-65.599,43.658-98.91,64.694
			c-24.703,15.6-55.184,37.568-85.53,39.458c-24.571,1.53-50.519-10.382-72.384-19.993c-46.526-20.452-91.117-49.106-142.652-54.121
			c0,8.115,0,12.173,0,20.289c50.532,5.394,94.818,31.373,141.098,50.444c21.754,8.965,47.85,20.511,72.013,18.933
			c29.556-1.931,59.796-22.669,84.286-37.373c32.259-19.368,63.292-40.737,95.868-59.584c23.461-13.574,49.49-29.163,77.248-30.848
			c37.609-2.283,76.09,0,113.78,0c25.09,0,72.843-9.643,92.944,9.1c13.247,12.352,9.868,33.974,26.393,44.097
			c12.291,7.529,28.867,5.088,42.475,5.092c17.66,0.006,35.317,0.356,52.972,0.742c35.012,0.765,70.482-0.302,105.419,1.58
			c26.266,1.415,37.288,10.837,44.937,35.485c8.712,28.074,17.803,39.647,48.85,40.988c35.128,1.518,70.67,0,105.835,0
			c42.645,0,81.914,0.568,123.371-11.415c64.359-18.603,125.998-47.082,191.385-62.118c20.428-4.698,41.478-4.022,61.691-9.337
			c15.903-4.182,30.382-11.771,45.065-18.937c39.59-19.32,71.518-22.603,115.494-19.644c65.051,4.378,129.9,11.341,195.016,14.809
			C1824.269,166.876,1824.278,162.834,1824.34,154.796z"/>
		<path fill="#241F20" d="M1824.325,194.387c-63.848-2.582-127.588-7.159-191.409-10.262c-43.4-2.11-76.881,1.141-117.053,17.677
			c-15.354,6.321-30.558,13.02-46.823,16.721c-20.237,4.605-41.036,4.083-61.393,8.389c-62.099,13.138-121.012,38.5-182.251,54.852
			c-40.818,10.899-80.004,10.188-121.828,10.188c-35.189,0-70.678,1.354-105.837,0c-28.586-1.101-40.267-9.331-52.083-34.423
			c-10.38-22.042-23.504-28.577-47.743-29.837c-36.188-1.881-72.604-2.058-108.841-3.661c-18.203-0.805-36.416-1.569-54.638-1.754
			c-14.364-0.146-30.21,1.749-43.642-4.668c-17.385-8.306-20.662-28.396-35.732-38.93c-23.859-16.677-67.286-8.119-94.72-8.119
			c-37.72,0-76.129-2.132-113.78,0c-59.177,3.351-116.989,52.379-166.898,79.989c-24.242,13.411-53.283,31.427-81.784,33.171
			c-23.766,1.454-49.302-8.707-71.106-16.804c-45.696-16.97-89.509-39.8-138.636-44.616c0,8.115,0,12.173,0,20.289
			c47.357,3.592,90.532,22.659,135.351,36.84c21.934,6.94,46.416,14.949,69.761,13.77c27.15-1.372,54.308-15.555,78.217-27.182
			c48.836-23.747,102.592-63.592,158.59-66.04c37.762-1.651,75.977,0,113.781,0c30.162,0,69.437-6.81,97.502,6.579
			c17.756,8.471,28.658,25.841,47.765,32.274c30.605,10.304,70.494,4.786,102.582,7.076c37.819,2.699,75.519,4.743,113.38,6.422
			c22.814,1.012,36.804,4.739,51.65,22.113c16.785,19.642,29.901,24.808,56.472,25.508c35.223,0.928,70.599,0,105.835,0
			c40.559,0,79.591,1.072,119.387-8.246c57.208-13.394,112.547-34.935,170.434-45.452c37.827-6.872,72.87-8.557,109.889-20.552
			c40.608-13.159,76.424-16.062,119.064-15.138c62.23,1.349,124.451,3.087,186.685,4.299
			C1824.401,206.657,1824.369,202.558,1824.325,194.387z"/>
		<path fill="#241F20" d="M1824.66,234.422c-60.573,0.31-121.137,1.458-181.707,1.983c-42.033,0.364-80.24,2.566-121.168,12.483
			c-37.485,9.082-73.727,10.099-111.554,15.579c-53.486,7.749-105.062,25.318-158.049,35.602
			c-71.323,13.842-149.979,6.901-222.475,6.062c-24.25-0.281-40.904-3.24-61.16-15.993c-18.15-11.427-34.52-13.113-55.855-13.846
			c-39.564-1.358-78.798-5.549-118.186-9.34c-34.916-3.36-73.201-0.138-107.353-7.722c-21.738-4.827-39.305-18.813-60.357-25.308
			c-31.436-9.698-68.148-4.855-100.619-4.855c-37.884,0-75.912-0.979-113.781,0c-52.6,1.36-102.212,31.87-149.776,51.24
			c-23.493,9.567-48.635,19.769-74.344,20.678c-22.932,0.811-46.242-4.842-68.28-10.478
			c-43.827-11.208-86.319-26.417-131.868-28.593c0,8.115,0,12.173,0,20.289c43.696,0.724,85.455,11.841,128.169,19.836
			c48.049,8.994,90.089,7.792,136.922-6.78c45.938-14.294,91.544-35.284,140.419-35.526c37.925-0.188,75.855,0,113.78,0
			c34.238,0,70.109-3.108,103.944,3.016c24.96,4.517,48.458,14.654,73.709,17.922c37.127,4.805,75.092,3.908,112.442,8.4
			c40.925,4.922,82.011,11.46,123.287,12.44c42.924,1.019,83.48,11.1,126.467,10.94c72.233-0.269,147.961,6.638,219.544-3.731
			c48.505-7.026,96.091-20.253,144.913-25.152c38.076-3.821,75.32-4.044,113.309-10.287c41.325-6.792,81.651-7.884,123.403-9.664
			c58.829-2.508,117.568-6.742,176.425-8.65C1824.787,246.753,1824.742,242.641,1824.66,234.422z"/>
		<path fill="#241F20" d="M0.57,316.702c85.11,0.879,167.782,15.909,252.838,3.321c79.981-11.837,158.537-10.384,239.227-10.384
			c35.725,0,71.573-1.196,107.239,1.192c31.556,2.114,62.919,6.051,94.585,6.374c84.038,0.856,167.324,29.726,251.044,26.08
			c47.357-2.062,92.091-16.417,139.925-16.417c71.913,0,144.959,3.727,216.688-1.459c80-5.785,159.629-7.325,239.643-12.1
			c43.526-2.597,86.923-1.605,130.33-6.29c55.292-5.967,110.297-15.058,165.912-17.537c0-8.115,0-12.172,0-20.288
			c-56.798,1.884-113.317,8.201-169.965,12.421c-43.15,3.214-86.321,2.613-129.343,7.537c-37.801,4.327-74.631,6.594-112.629,7.494
			c-45.222,1.071-89.913,11.234-134.651,16.987c-72.181,9.283-147.176,3.987-219.866,3.987c-44.179,0-88.427,0.905-132.604,1.546
			c-81.289,1.18-162.534-19.195-243.867-22.591c-28.491-1.19-55.861-8.162-83.949-12.256c-34.257-4.994-69.146-3.171-103.663-3.171
			c-37.927,0-75.854,0-113.781,0c-46.133,0-87.42,10.001-131.964,21.328c-45.245,11.505-88.143,15.443-134.609,9.918
			C84.833,307.368,43.292,298.49,0.66,296.627C0.61,304.624,0.59,308.634,0.57,316.702z"/>
		<path fill="#241F20" d="M1825.108,302.617c-55.828,4.417-110.822,15.173-166.458,21.225c-42.307,4.603-85.16,2.793-127.672,4.274
			c-78.937,2.75-157.938,3.967-236.902,6.255c-71.524,2.072-143.225-1.597-214.776-0.062
			c-49.351,1.059-94.329,24.747-143.619,23.584c-44.478-1.049-89.033-11.187-132.813-18.231
			c-40.693-6.547-79.887-9.393-120.984-9.889c-69.616-0.84-139.004-3.773-208.68-3.773c-79.439,0-157.608,0.123-236.819,6.34
			c-82.793,6.499-165.455-4.765-248.255-2.798c0,8.115,0,12.172,0,20.288c159.638-1.497,319.381-0.199,479.032-0.199
			c71.619,0,143.238,0.412,214.855,0.357c86.988-0.065,169.999,27.601,256.394,29.853c51.603,1.345,94.819-28.988,146.548-29.743
			c71.51-1.044,143.083,0.347,214.598,0.204c77.492-0.155,154.993-0.154,232.483-0.557c42.773-0.222,86.121,2.08,128.654-3.034
			c55.008-6.613,109.024-19.474,164.32-23.926C1825.086,314.76,1825.102,310.724,1825.108,302.617z"/>
		<path fill="#241F20" d="M1825.068,342.262c-55.363,4.661-109.759,16.142-164.9,22.557c-42.639,4.96-85.796,3.152-128.65,3.152
			c-77.108,0-154.14,0.852-231.236,1.448c-71.65,0.554-143.335-1.166-214.988-0.268c-51.964,0.651-95.702,31.494-147.525,29.513
			c-85.976-3.286-169.012-28.234-255.465-28.33c-71.835-0.08-143.658-1.183-215.501-1.183c-159.527,0-319.162,1.356-478.672,0
			c0,8.115,0,12.174,0,20.289c83.396,0.931,166.617-5.278,250.052-2.531c76.241,2.51,152.339,2.531,228.62,2.531
			c72.053,0,143.544,4.116,215.501,5.543c84.485,1.676,167.428,18.316,251.724,21.641c52.411,2.067,98.739-26.481,151.267-27.184
			c71.483-0.956,143.322,2.771,214.736-0.239c36.658-1.545,73.118-6.3,109.826-6.939c39.553-0.688,79.224,0.254,118.791,0.254
			c42.993,0,85.95,1.062,128.81-2.833c55.952-5.085,111.609-12.929,167.653-17.055
			C1825.121,354.538,1825.115,350.472,1825.068,342.262z"/>
		<path fill="#241F20" d="M1825.03,381.794c-100.436,4.69-200.246,11.186-300.815,11.186c-39.355,0-79.221-1.865-118.514,0.306
			c-35.771,1.977-70.706,10.537-106.307,13.973c-70.549,6.809-143.246,0.673-214.102,1.505
			c-53.824,0.632-103.189,25.252-156.938,23.779c-81.92-2.245-164.233-7.599-246.052-11.881
			c-35.521-1.859-70.655-7.917-106.105-10.58c-36.319-2.728-72.996-1.318-109.396-1.318c-74.815,0-148.857-0.445-223.507-5.456
			c-85.339-5.729-169.906,5.862-255.165,5.456c0,8.115,0,12.173,0,20.288c87.547-0.668,174.169-19.533,261.761-9.229
			c72.68,8.55,143.738,9.229,216.911,9.229c36.413,0,73.203-1.749,109.397,2.883c35.552,4.55,70.392,13.756,106.104,17.201
			c78.578,7.58,159.797-0.284,238.649-0.699c55.733-0.293,108.567-18.916,164.341-19.386c35.272-0.297,70.561,0,105.835,0
			c35.551,0,72.169,2.668,107.334-3.373c34.345-5.9,67.116-19.042,101.885-22.817c38.761-4.208,79.096-1.229,118.054-1.229
			c102.143,0,204.329,0.911,306.465,0.123C1824.941,393.793,1824.979,389.806,1825.03,381.794z"/>
		<path fill="#241F20" d="M1824.675,420.692c-104.376-3.44-207.828-11.884-312.351-11.884c-38.389,0-79.6-4.22-117.535,2.261
			c-33.939,5.798-64.19,23.418-97.34,31.906c-34.363,8.799-71.15,5.399-106.321,5.399c-35.277,0-70.559-0.164-105.835,0
			c-57.842,0.269-114.263,13.168-172.055,14.827c-76.205,2.188-154.876,24.625-230.936,13.745
			c-35.969-5.145-70.418-17.471-106.105-23.997c-36.071-6.597-72.89-4.575-109.396-4.575c-37.923,0-75.857,0.265-113.78,0
			c-33.028-0.231-63.995-7.379-96.287-13.145c-89.188-15.924-179.227,11.218-268.605,13.145c0,8.115,0,12.174,0,20.289
			c90.173-3.174,186.36-40,275.735-17.225c30.066,7.662,57.72,16.726,89.157,17.225c37.905,0.601,75.87-0.001,113.78-0.001
			c36.681,0,73.457-2.293,109.397,6.332c35.858,8.604,69.807,24.142,106.104,31.084c74.462,14.243,148.852-23.256,222.905-27.334
			c59.888-3.298,120.09-10.028,180.086-10.081c35.278-0.031,70.557-0.001,105.835-0.001c34.815,0,71.891,4.201,105.268-7.501
			c32.004-11.221,59.308-33.412,92.607-41.381c36.819-8.811,79.336-3.331,116.997-3.331c43.933,0,87.937-1.32,131.713,2.973
			c62.37,6.116,124.23,16.573,186.76,21.16C1824.546,432.612,1824.592,428.641,1824.675,420.692z"/>
		<path fill="#241F20" d="M1824.328,459.612c-64.296-6.746-127.332-21.458-191.324-30.291c-43.919-6.062-88.168-4.336-132.396-4.338
			c-36.945-0.001-80.894-6.508-116.583,4.167c-32.942,9.854-57.396,36.015-88.482,49.622c-32.373,14.17-69.907,9.211-104.414,9.211
			c-35.278,0-70.557,0.062-105.835,0c-61.805-0.11-125.351,1.231-186.955,5.999c-72.824,5.636-141.899,56.196-216.036,39.023
			c-36.627-8.484-70.128-26.692-106.105-37.256c-35.708-10.485-72.603-7.766-109.396-7.766c-37.897,0-75.892,0.803-113.779,0
			c-30.429-0.645-54.812-11.268-83.028-20.729c-41.061-13.767-82.989-6.98-124.893-0.543C92.903,474.731,41,485.614-11.871,487.984
			c0,8.115,0,12.174,0,20.289c54.724-2.694,108.313-15.154,162.198-24.264c41.234-6.971,84.785-16.11,124.757,0.621
			c26.782,11.21,47.907,22.921,77.938,23.643c37.876,0.91,75.891,0,113.78,0c36.865,0,73.932-3.124,109.396,8.789
			c36.127,12.135,69.123,32.841,106.105,42.563c74.878,19.685,137.997-42.06,210.41-48.746c63.034-5.82,129.261-2.792,192.581-2.606
			c35.277,0.104,70.557,0,105.835,0c34.177,0,72.432,5.691,103.808-10.421c30.391-15.606,52.105-45.319,84.954-56.68
			c34.679-11.993,80.029-4.679,116.327-4.679c44.409,0,88.911-2.159,132.858,5.263c65.404,11.045,129.304,29.683,195.189,38.015
			C1824.267,471.66,1824.281,467.634,1824.328,459.612z"/>
		<path fill="#241F20" d="M1824.326,499.219c-66.982-8.824-131.236-30.524-197.559-42.753c-43.789-8.074-88.598-5.43-132.939-5.428
			c-35.885,0.001-82.238-7.789-116.341,4.648c-33.024,12.044-52.659,44.405-82.711,61.167
			c-30.597,17.065-69.855,10.744-103.648,10.744c-35.278,0-70.557,0.062-105.835-0.001c-64.332-0.114-131.68-5.327-195.716,0.631
			c-72.819,6.776-130.984,75.572-207.275,54.426c-37.294-10.336-69.839-32.926-106.105-45.974
			c-35.179-12.656-72.629-9.084-109.396-9.084c-37.895,0-75.896,0.846-113.78,0c-30.276-0.676-48.871-12.773-74.973-25.338
			c-38.801-18.678-84.295-7.873-124.669-0.67c-54.838,9.783-109.43,23.462-165.25,26.008c0,8.115,0,12.173,0,20.289
			c55.84-2.534,110.451-16.247,165.306-26.041c40.35-7.204,85.896-18.046,124.667,0.671c26.163,12.63,44.614,24.493,74.929,25.403
			c37.815,1.135,75.754-0.236,113.574-0.619c36.544-0.37,74.424-3.818,109.337,8.903c36.436,13.276,68.896,36.661,106.44,47.047
			c77.066,21.32,133.561-49.208,206.819-55.59c64.434-5.614,131.568-0.025,196.268-0.32c35.224-0.161,70.436,0.259,105.657,0.553
			c33.513,0.28,73.516,6.616,103.777-10.497c30.031-16.982,48.847-50.438,82.075-62.437c34.016-12.284,80.702-4.366,116.482-4.364
			c44.18,0.002,89.191-2.963,132.804,5.149c66.59,12.386,130.813,35.417,198.158,43.958
			C1824.423,511.586,1824.383,507.448,1824.326,499.219z"/>
		<path fill="#241F20" d="M1824.423,539.023c-67.345-8.535-131.569-31.569-198.158-43.956c-43.612-8.113-88.624-5.149-132.804-5.15
			c-35.78,0-82.467-7.92-116.482,4.365c-33.229,12-52.044,45.453-82.075,62.436c-30.286,17.127-70.064,10.926-103.511,9.657
			c-34.977-1.328-69.869-3.15-104.883-2.993c-64.688,0.291-131.851-5.207-196.271,0.407c-73.36,6.393-130.858,76.377-207.869,55.119
			c-37.939-10.473-70.831-33.962-107.662-47.341c-34.937-12.69-72.595-9.63-109.103-7.933c-37.468,1.742-75.024,5.02-112.563,3.636
			c-30.062-1.108-50.988-12.476-77.84-23.774c-39.939-16.805-83.54-7.603-124.753-0.622c-53.925,9.134-107.552,21.632-162.32,24.333
			c0,8.115,0,12.172,0,20.288c52.932-2.387,104.89-13.315,157.144-21.371c41.887-6.458,83.854-13.315,124.888,0.545
			c28.204,9.526,52.464,20.032,82.88,20.886c37.2,1.044,73.948-4.984,110.82-8.843c36.577-3.828,73.516-6.922,108.728,5.806
			c37.496,13.553,71.061,36.907,109.58,47.805c76.918,21.763,136.441-47.946,209.964-54.22c64.3-5.487,131.712-0.736,196.266-0.363
			c34.713,0.201,69.041,4.149,103.585,7.076c33.356,2.826,72.504,9.391,102.921-7.81c30.031-16.983,48.847-50.435,82.075-62.435
			c34.017-12.286,80.701-4.365,116.482-4.366c44.179-0.001,89.191-2.962,132.804,5.15c66.59,12.386,130.813,35.418,198.158,43.957
			C1824.423,551.196,1824.423,547.139,1824.423,539.023z"/>
		<path fill="#241F20" d="M1.219,622.938c88.689-5.069,177.872-30.516,266.292-11.822c32.532,6.878,64.354,14,97.909,11.644
			c36.389-2.556,70.588-15.669,105.985-23.284c38.818-8.35,72.697-6.925,109.623,8.394c37.329,15.485,73.224,39.662,113.556,46.753
			c75.623,13.295,139.76-53.551,214.645-55.376c64.438-1.57,131.744-4.223,195.994,0.831c62.187,4.892,142.419,46.583,199.115,6.42
			c27.947-19.797,48.123-51.961,83.642-59.306c36.691-7.587,80.623-1.239,118.043-1.24c46.894-0.002,92.172-1.133,138.311,8.847
			c64.201,13.886,127.698,37.373,193.667,40.942c0-8.115,0-12.174,0-20.29c-65.967-3.563-129.468-27.053-193.667-40.941
			c-46.139-9.98-91.417-8.848-138.311-8.848c-37.42,0-81.352-6.346-118.043,1.241c-35.519,7.345-55.694,39.508-83.642,59.306
			c-54.895,38.886-139.933,4.286-201.671,1.613c-64.879-2.809-131.24-1.968-196.164-0.302
			c-74.211,1.904-136.695,69.817-211.729,56.647c-39.542-6.94-74.562-30.864-111.088-46.157
			c-36.408-15.244-70.899-16.053-109.547-10.657c-36.233,5.059-71.869,14.301-108.586,15.516
			c-32.632,1.079-61.064-6.349-91.922-15.543c-87.838-26.174-183.317,8.509-272.099,15.143
			C1.421,610.649,1.353,614.746,1.219,622.938z"/>
		<path fill="#241F20" d="M1824.423,607.618c-67.346-8.537-131.568-31.572-198.158-43.957c-43.611-8.111-88.625-5.151-132.804-5.149
			c-35.781,0.001-82.466-7.921-116.482,4.364c-33.229,12-52.044,45.454-82.075,62.437c-58.45,33.055-138.735-15.465-200.304-18.761
			c-34.381-1.841-69.254-0.229-103.683-0.229c-30.58,0-62.059-2.168-92.547,0.195c-75.227,5.832-139.043,73.28-217.092,51.2
			c-40.439-11.44-76.066-35.197-115.52-49.241c-36.787-13.095-70.805-9.311-107.549,1.663
			c-34.762,10.382-68.373,24.73-105.198,25.635c-33.624,0.826-66.165-6.457-99.179-11.458
			c-88.641-13.427-177.004,10.095-265.704,11.485c0,8.115,0,12.173,0,20.289c86.522-0.13,172.095-15.553,258.695-7.475
			c35.208,3.284,70.7,9.072,106.174,7.41c36.974-1.733,69.062-19.714,102.785-32.841c36.596-14.245,69.418-18.193,107.043-4.883
			c40.289,14.253,76.796,38.211,118.065,49.854c78.607,22.176,144.149-44.263,220.16-49.902c30.526-2.265,61.97-0.18,92.581-0.179
			c34.302,0,69.422-2.177,103.632,0.391c62.11,4.663,137.284,61.265,197.639,27.137c30.032-16.982,48.847-50.435,82.075-62.436
			c34.015-12.285,80.703-4.364,116.482-4.364c44.18,0,89.191-2.961,132.804,5.149c66.591,12.384,130.813,35.417,198.158,43.957
			C1824.423,619.792,1824.423,615.733,1824.423,607.618z"/>
		<path fill="#241F20" d="M1824.423,647.229c-67.345-8.539-131.568-31.572-198.158-43.958c-43.612-8.112-88.625-5.149-132.804-5.149
			c-35.781,0-82.466-7.92-116.482,4.366c-33.229,12.001-52.044,45.453-82.075,62.436c-62.23,35.191-132.737-28.363-195.426-34.088
			c-34.046-3.109-69.417-0.494-103.599-0.494c-30.635,0-62.051-2.024-92.605,0.168c-76.619,5.499-143.651,71.079-222.673,48.833
			c-41.973-11.816-79.225-35.948-120.225-50.377c-38.33-13.49-70.322-9.574-106.616,7.493
			c-32.793,15.42-63.482,36.559-100.768,38.867c-37.144,2.299-74.943-2.113-112.019-4.042c-84.47-4.394-168.438,4.836-252.844,4.128
			c0,8.115,0,12.174,0,20.289c82.747,0.939,165.444-3.151,248.212-1.478c38.626,0.781,78.062,3.941,116.651,1.394
			c37.761-2.493,67.15-26.346,99.166-43.653c35.86-19.385,67.457-22.997,106.267-9.393c41.586,14.577,79.458,38.847,122.012,50.808
			c79.245,22.273,147.556-42.59,224.565-48.017c30.566-2.154,61.962-0.167,92.604-0.167c34.101,0,69.657-2.895,103.594,0.509
			c63.399,6.359,129.578,75.77,193.702,39.508c30.031-16.983,48.847-50.435,82.075-62.436c34.016-12.285,80.701-4.366,116.482-4.366
			c44.179,0,89.191-2.962,132.804,5.15c66.589,12.387,130.813,35.42,198.158,43.956
			C1824.423,659.401,1824.423,655.344,1824.423,647.229z"/>
		<path fill="#241F20" d="M1824.423,686.84c-67.345-8.543-131.567-31.572-198.158-43.957c-43.611-8.111-88.625-5.151-132.804-5.149
			c-35.781,0.001-82.466-7.921-116.482,4.364c-33.229,12-52.044,45.454-82.075,62.436c-65.729,37.17-128.642-35.852-192.873-42.121
			c-33.947-3.313-69.521-0.397-103.626-0.397c-30.634,0-62.021-1.988-92.577,0.18c-77.042,5.467-146.192,69.884-225.352,47.655
			c-42.895-12.045-81.136-36.393-123.063-51.062c-38.858-13.596-70.655-10.617-106.069,10.063
			c-31.621,18.465-60.006,44.053-98.337,46.128c-39.44,2.136-79.536,0.02-119.03-0.082c-81.949-0.21-163.899,0.456-245.847,0.125
			c0,8.115,0,12.174,0,20.29c82.326,0.664,164.653-1.285,246.984-0.567c38.999,0.34,78.964,3.229,117.884,0.458
			c37.533-2.673,66.907-26.703,98.662-44.044c36.361-19.857,66.741-22.571,106.152-9.392c41.601,13.911,80.249,35.96,122.619,47.683
			c79.654,22.039,147.928-41.312,225.451-47.087c30.64-2.283,62.122-0.243,92.823,0.11c34.266,0.395,69.9-2.377,103.994,0.748
			c64.974,5.957,126.076,79.446,192.789,42.165c29.976-16.751,49.265-49.35,82.275-61.314c34.115-12.365,80.566-4.548,116.448-4.548
			c44.385,0,89.111-2.519,132.96,5.464c66.147,12.042,130.361,33.074,197.126,41.893
			C1824.338,698.846,1824.423,694.955,1824.423,686.84z"/>
		<path fill="#241F20" d="M1824.267,726.141c-65.556-8.053-129.297-25.852-194.413-36.466c-43.955-7.166-88.396-5.108-132.782-5.108
			c-36.09,0-82.036-7.582-116.46,4.491c-32.711,11.472-52.807,42.6-82.748,58.618c-67.702,36.222-127.223-36.481-192.839-42.451
			c-34.577-3.146-70.487-0.976-105.259-2.204c-31.013-1.095-62.889-3.665-93.885-1.338c-78.405,5.886-144.558,66.975-225.387,47.46
			c-41.395-9.994-80.328-27.983-121.219-39.656c-39.259-11.207-69.257-8.748-106.421,7.843
			c-32.463,14.492-63.494,34.379-99.863,37.153c-37.535,2.863-76.186-1.01-113.753-2.141c-83.769-2.521-167.369,3.101-251.108,2.291
			c0,8.115,0,12.174,0,20.289c86.02,0.295,171.548-10.469,257.618-5.016c35.519,2.25,71.613,6.98,107.247,4.887
			c35.417-2.081,68.255-16.066,101.75-26.342c37.135-11.393,68.685-13.376,106.825-5.53c39.966,8.221,78.95,20.826,119.166,27.898
			c82.07,14.432,145.89-43.096,225.146-48.848c31.604-2.293,64.146,1.283,95.673,3.4c35.584,2.39,71.923,1.293,107.323,4.587
			c66.326,6.171,124.026,77.388,192.968,43.18c29.94-14.856,51.063-44.078,83.451-54.635c34.917-11.382,80.135-4.167,116.521-4.167
			c44.162,0,88.355-1.629,132.246,4.045c63.623,8.225,126.406,21.952,190.295,28.225
			C1824.303,738.383,1824.28,734.284,1824.267,726.141z"/>
		<path fill="#241F20" d="M1824.518,766.25c-62.087-4.008-123.625-13.395-185.582-18.803c-43.732-3.818-87.671-2.6-131.527-2.6
			c-36.718,0-81.119-6.769-116.602,3.691c-32.08,9.457-54.289,36.609-84.249,50.125c-70.216,31.675-126.106-37.656-193.136-44.138
			c-36.402-3.52-73.228-3.664-109.75-7.386c-32.1-3.271-65.467-8.054-97.791-5.845c-39.725,2.715-76.923,20.725-113.745,34.345
			c-37.67,13.935-71.017,20.184-111.063,16.435c-75.875-7.102-147.862-23.693-224.134-11.728
			c-34.515,5.415-68.885,12.837-103.933,13.828c-33.532,0.948-66.502-4.49-99.705-8.105c-88.474-9.635-176.68,7.54-265.172,8.175
			c0,8.115,0,12.173,0,20.288c90.598-1.786,183.484-27.272,273.753-11.763c30.612,5.259,59.878,11.468,91.137,11.776
			c35.468,0.35,70.942,0.272,106.412,0.376c74.017,0.218,148.031,0.05,222.048-0.232c39.666-0.151,73.209-4.908,110.658-18.762
			c36.729-13.587,74.078-31.841,113.745-34.345c33.169-2.094,67.475,4.148,100.216,8.642c37.557,5.154,74.958,6.775,112.517,10.58
			c67.788,6.866,121.78,73.905,193.336,45.271c29.992-12.002,53.376-36.832,85.145-45.046c36.109-9.336,79.612-3.113,116.704-3.113
			c103.884,0,207.127,6.637,310.922,9.029C1824.637,778.664,1824.595,774.52,1824.518,766.25z"/>
		<path fill="#241F20" d="M1824.908,806.643c-101.682,1.749-203.412,2.598-305.107,2.598c-37.442,0-80.127-5.668-116.801,2.576
			c-31.498,7.081-55.961,29.668-85.987,40.265c-72.731,25.667-125.029-39.111-193.521-46.33
			c-38.665-4.075-76.614-7.097-115.119-13.579c-33.324-5.61-68.513-13.254-102.491-11.268
			c-39.614,2.316-77.097,20.79-113.745,34.345c-37.173,13.75-71.313,17.147-110.279,20.928
			c-37.404,3.629-74.464,10.105-111.796,14.35c-36.995,4.207-71.503,2.503-108.289-2.856
			c-64.472-9.393-128.692-13.382-191.826-28.954c-41.231-10.17-83.204-5.088-124.889-0.397
			c-52.24,5.879-104.319,13.916-156.929,15.535c0,8.116,0,12.173,0,20.289c55.286-2.162,109.913-11.75,164.71-18.791
			c40.974-5.265,84.552-13.119,124.694,0.479c26.185,8.871,47.545,16.17,75.508,18.45c38.244,3.117,74.238,16.084,110.935,26.305
			c37.785,10.524,70.227,14.045,108.751,5.51c36.752-8.143,72.407-20.898,109.458-27.756c38.031-7.039,73.073-9.162,109.952-22.803
			c36.58-13.53,74.178-32.177,113.745-34.345c34.755-1.904,70.756,7.06,104.611,13.714c39.374,7.739,77.826,12.069,117.546,16.382
			c69.168,7.509,119.913,70.075,193.69,47.269c30.057-9.292,55.539-29.641,86.789-35.712c37.168-7.221,79.121-2.118,116.881-2.118
			c100.35,0,199.503-8.061,299.657-13.499C1825.012,819.026,1824.98,814.903,1824.908,806.643z"/>
		<path fill="#241F20" d="M1825.112,846.664c-55.837,4.352-111.173,13.096-166.892,18.58c-42.803,4.212-85.776,2.979-128.734,2.979
			c-37.986,0-79.419-4.646-116.924,1.874c-31.056,5.399-57.335,23.868-87.41,32.203c-74.568,20.667-124.061-40.205-193.791-47.856
			c-40.532-4.448-79.312-9.726-119.332-18.439c-34.243-7.456-70.797-17.374-106.148-15.486
			c-39.549,2.111-77.191,20.825-113.745,34.345c-18.544,6.859-37.484,13.518-57.067,16.708c-17.686,2.88-35.15,2.821-52.697,7.169
			c-37.029,9.175-71.227,27.046-107.648,38.13c-39.288,11.957-71.166,6.785-109.106-7.54
			c-36.918-13.939-72.741-31.969-112.577-35.719c-27.478-2.586-45.102-10.173-69.846-20.821
			c-38.557-16.593-84.733-6.106-124.544-0.543c-56.695,7.923-113.231,18.801-170.522,21.222c0,8.115,0,12.173,0,20.289
			c58.552-2.255,116.307-14.234,174.158-22.743c38.413-5.649,87.64-18.159,124.438,0.587c23.942,12.197,38.475,19.966,66.306,22.233
			c41.227,3.358,76.623,25.176,113.61,41.641c37.202,16.561,70.237,22.861,109.346,8.915
			c36.306-12.946,69.118-34.964,106.391-45.333c17.527-4.876,34.933-4.306,52.692-7.198c19.583-3.189,38.525-9.849,57.067-16.708
			c36.581-13.532,74.177-32.172,113.744-34.346c35.76-1.964,72.525,8.465,107.018,16.492c40.437,9.409,79.305,15.215,120.384,19.654
			c34.716,3.751,63.227,22.119,94.259,36.385c32.402,14.896,64.52,20.658,99.557,11.617c30.066-7.758,56.952-24.683,87.838-29.796
			c37.691-6.24,78.793-1.913,116.915-1.914c42.828-0.001,86.078,1.978,128.679-3.096c55.04-6.555,109.213-18.74,164.508-23.346
			C1825.101,858.812,1825.112,854.779,1825.112,846.664z"/>
		<path fill="#241F20" d="M2.272,928.403c58.377-4.528,114.878-20.014,172.508-29.494c38.523-6.337,77.126-10.857,113.296,6.271
			c10.633,5.035,20.687,11.027,32,14.534c15.713,4.87,31.303,3.379,47.339,5.592c42.365,5.846,79.076,33.568,117.707,49.894
			c37.865,16.001,72.114,15.546,109.565-1.388c34.569-15.631,67.015-40.348,105.047-47.093c17.933-3.181,35.907-2.349,53.832-6.504
			c19.493-4.52,38.392-11.32,57.186-18.098c35.838-12.924,72.735-28.042,111.468-27.935c37.401,0.104,73.452,14.535,108.445,26.13
			c20.194,6.691,40.595,13.426,61.611,17.05c17.999,3.104,36.104,0.699,53.996,3.981c34.222,6.278,62.484,28.52,93.897,41.935
			c31.934,13.637,65.729,15.779,98.464,3.426c29.547-11.151,54.984-30.292,87.47-32.729c39.166-2.938,79.107-1.298,118.478-3.753
			c43.963-2.741,87.833-0.29,131.527-6.574c53.968-7.762,107.213-20.904,161.892-22.613c0-8.116,0-12.173,0-20.289
			c-54.677,1.704-107.927,14.847-161.892,22.611c-43.687,6.286-87.439,4.49-131.44,4.891c-38.98,0.354-79.428-2.731-118.226,0.713
			c-32.027,2.844-58.98,18.719-89.002,28.369c-33.389,10.732-66.151,9.557-98.591-3.738c-31.243-12.804-59.536-33.769-93.307-39.931
			c-17.786-3.245-36.03-1.722-53.961-4.312c-21.165-3.057-41.988-8.232-62.715-13.396c-35.842-8.93-72.788-20.411-110.026-20.906
			c-39.287-0.522-76.104,15.352-112.182,29.038c-18.967,7.195-38.055,14.449-57.817,19.188c-17.893,4.29-35.814,3.417-53.754,6.567
			c-38.024,6.676-71.061,30.194-105.976,45.216c-37.511,16.139-71.445,17.063-109.298,1.399
			c-37.673-15.59-73.104-41.593-114.24-47.403c-15.863-2.24-31.724-0.29-47.12-5.731c-9.724-3.437-17.604-9.445-26.395-14.585
			c-33.237-19.434-74.527-11.637-110.711-6.601c-59.867,8.332-119.07,21.218-179.419,25.793
			C2.187,916.181,2.245,920.273,2.272,928.403z"/>
		<path fill="#241F20" d="M1824.952,913.971c-55.255,4.292-109.099,17.658-164.04,24.281c-42.815,5.161-86.07,3.218-129.076,8.097
			c-20.075,2.277-40.162,4.669-60.357,5.595c-18.875,0.865-38.256-1.849-56.884,1.941c-31.158,6.34-54.818,29.146-84.435,39.208
			c-75.671,25.708-124.754-45.726-195.03-52.183c-19.485-1.79-36.901-1.12-56.106-6.69c-20.989-6.089-41.117-14.832-61.31-23.091
			c-33.676-13.774-67.581-27.558-104.637-24.824c-38.623,2.85-75.191,18.465-111.552,30.557
			c-18.284,6.08-36.919,12.008-56.024,14.905c-17.82,2.703-35.394,1.767-52.85,6.942c-37.259,11.047-68.151,36.848-104.026,51.174
			c-39.235,15.668-74.305,7.365-111.231-10.328c-38.601-18.495-76.079-44.479-119.978-47.075
			c-30.414-1.799-53.074-11.87-81.16-22.213c-41.132-15.148-84.027-7.838-125.81,1.194C96.688,923.082,43.525,940.27-11.871,941.097
			c0,8.115,0,12.171,0,20.286c95.917-2.961,179.687-68.594,277.204-40.333c33.03,9.572,62.527,19.84,97.125,22.078
			c46.055,2.979,86.03,31.766,126.282,51.607c37.678,18.572,73.501,29.052,113.635,11.527
			c35.412-15.463,65.139-42.972,102.146-54.971c17.325-5.618,34.631-4.747,52.45-7.137c18.664-2.503,36.948-7.677,54.95-13.054
			c35.646-10.646,71.824-24.821,109.354-26.761c37.757-1.951,69.818,16.431,101.692,34.525
			c19.26,10.934,38.396,22.499,58.944,30.912c18.979,7.771,35.345,7.835,55.127,10.055c68.807,7.72,122.048,87.837,195.971,55.725
			c29.151-12.663,49.834-39.979,81.24-48.304c18.352-4.864,37.896-1.971,56.66-3.951c20.428-2.156,40.537-6.521,60.621-10.697
			c43.417-9.026,85.705-8.801,129.382-14.065c54.94-6.623,108.785-19.99,164.04-24.278
			C1824.952,926.146,1824.952,922.086,1824.952,913.971z"/>
		<path fill="#241F20" d="M1824.952,953.582c-55.255,4.292-109.1,17.656-164.04,24.279c-22.35,2.694-44.989,1.505-67.219,4.822
			c-21.32,3.182-41.977,9.711-62.512,16.064c-20.067,6.209-40.171,12.71-60.91,16.328c-18.598,3.245-38.385,0.472-56.359,6.598
			c-31.728,10.813-49.096,42.67-77.716,58.344c-70.731,38.736-130.666-50.147-196.969-59.552
			c-20.162-2.859-35.446-4.011-53.926-14.253c-20.073-11.125-38.104-25.682-56.354-39.478
			c-29.436-22.253-59.709-46.403-98.299-45.67c-36.325,0.69-72.056,13.563-106.889,22.503c-17.695,4.541-35.546,8.938-53.74,10.962
			c-17.841,1.984-34.729,1.221-51.914,7.366c-36.725,13.133-65.176,42.404-100.079,59.149
			c-41.082,19.71-77.913,6.622-116.429-12.887c-41.781-21.162-85.143-53.81-133.371-56.705
			c-39.874-2.395-76.431-12.675-115.121-21.935c-46.089-11.031-85.166-10.208-129.733,7.071
			c-44.56,17.276-86.635,41.33-135.246,44.115c0,8.115,0,12.173,0,20.288c45.276-4.197,80.267-32.029,119.301-52.645
			c44.432-23.466,84.092-20.118,132.103-10.669c45.302,8.916,89.035,18.546,135.146,21.779
			c50.872,3.567,97.397,39.582,141.253,62.372c39.355,20.452,77.591,36.65,119.571,14.404
			c34.334-18.194,61.375-49.338,97.797-63.766c31.468-12.465,70.292-9.192,103.678-16.26c33.824-7.16,69.242-18.492,104.153-17.773
			c39.62,0.815,67.995,32.035,94.495,58.145c17.157,16.905,33.962,34.688,53.495,48.928c17.704,12.906,31.891,15.389,52.554,19.061
			c63.111,11.217,131.584,109.086,198.064,63.757c28.001-19.093,41.702-55.659,73.815-69.441
			c17.516-7.518,37.615-5.051,56.005-9.673c21.133-5.312,41.203-14.144,61.23-22.552c20.449-8.585,41.078-17.5,62.831-22.276
			c22.044-4.841,44.933-3.539,67.29-6.235c54.94-6.626,108.785-19.982,164.04-24.278
			C1824.952,965.756,1824.952,961.697,1824.952,953.582z"/>
		<path fill="#241F20" d="M1824.952,993.192c-55.255,4.296-109.099,17.656-164.04,24.279c-22.453,2.706-45.455,1.303-67.355,7.509
			c-22.197,6.29-42.775,17.407-63.125,28.012c-19.976,10.409-39.99,21.395-61.524,28.31c-18.191,5.841-38.612,3.698-55.69,12.443
			c-32.488,16.636-42.814,57.422-70.207,79.708c-32.133,26.144-68.763,8.769-99.004-11.479
			c-32.306-21.629-61.039-47.98-100.08-56.181c-21.203-4.453-34.453-8.18-51.304-23.42c-19.006-17.189-34.687-37.916-50.85-57.681
			c-23.793-29.094-50.294-67.308-91.005-69.608c-33.615-1.899-68.716,7.895-101.625,13.41
			c-32.676,5.477-71.476,1.204-101.875,14.348c-36.163,15.637-61.868,48.502-95.683,68.038
			c-42.644,24.637-82.435,5.428-122.454-15.8c-45.779-24.283-95.21-63.41-148.52-67.601
			c-51.963-4.085-102.193-12.956-153.607-21.631c-49.006-8.269-91.544-16.056-134.277,13.956
			c-33.769,23.716-61.784,55.051-104.599,60.511c0,8.115,0,12.174,0,20.289c41.298-6.439,62.395-41.164,91.091-67.736
			c39.473-36.553,87.196-24.146,136.225-16.865c57.01,8.466,113.173,16.636,170.546,21.49
			c55.542,4.699,107.674,46.759,155.205,72.405c40.479,21.841,81.959,43.92,125.032,17.076c33.343-20.78,57.75-55.293,93.709-72.03
			c29.587-13.771,68.147-8.615,100.28-12.59c32.127-3.974,66.808-12.136,99.299-9.393c41.935,3.54,66.447,48.455,87.852,79.976
			c15.239,22.442,29.854,45.922,48.364,65.893c16.023,17.288,28.439,22.006,50.229,27.132c39.85,9.375,68.557,36.979,101.198,59.971
			c30.053,21.169,67.54,40.874,98.869,11.393c26.817-25.236,33.939-70.011,66.839-89.286c16.696-9.782,37.416-7.812,55.438-14.71
			c21.945-8.4,41.891-21.424,61.8-33.683c20.232-12.459,40.743-25.673,63.399-33.35c21.765-7.375,44.836-5.814,67.407-8.537
			c54.94-6.626,108.785-19.982,164.04-24.278C1824.952,1005.367,1824.952,1001.308,1824.952,993.192z"/>
		<path fill="#241F20" d="M1824.952,1032.806c-55.255,4.292-109.1,17.651-164.04,24.277c-22.605,2.727-45.813,0.941-67.432,9.017
			c-23.051,8.61-43.496,23.459-63.603,37.293c-19.835,13.647-39.704,28.246-62.006,37.693c-17.93,7.595-38.852,5.415-55.326,15.812
			c-33.355,21.052-37.905,69.096-64.333,96.43c-30.634,31.685-69.06,10.248-98.835-11.501
			c-32.766-23.935-61.545-52.867-102.008-62.731c-22.329-5.443-34.12-10.477-49.599-29.242
			c-18.179-22.039-31.959-47.634-46.488-72.103c-19.775-33.304-42.495-83.036-85.694-87.104c-31.809-2.995-65.948,3.68-97.617,6.486
			c-31.773,2.816-70.176-2.856-99.259,11.323c-35.865,17.486-59.214,53.348-92.228,75.025
			c-43.23,28.386-86.103,4.212-126.754-17.981c-48.733-26.605-102.896-70.954-160.013-75.863
			c-61.271-5.267-121.659-13.066-182.664-21.369c-48.228-6.563-101.729-22.628-137.527,18.74
			c-24.854,28.721-40.353,66.196-81.398,72.92c0,8.115,0,12.173,0,20.288c42.204-5.972,53.376-45.381,75.976-75.819
			c32.631-43.949,91.257-25.411,138.071-19.375c63.206,8.15,125.902,16.125,189.367,21.275
			c57.951,4.702,113.43,50.707,162.725,77.812c40.499,22.27,84.336,47.591,127.464,18.464
			c32.846-22.183,55.366-59.151,91.275-76.951c28.804-14.278,67.398-8.584,98.927-10.607c31.583-2.027,65.023-7.309,96.649-4.819
			c44.673,3.517,65.815,55.697,84.698,90.479c14.014,25.812,27.152,52.91,45.245,76.21c15.36,19.78,26.667,24.075,49.521,29.322
			c40.875,9.385,69.893,40,102.484,64.355c29.297,21.893,68.845,44.479,98.954,11.907c26.294-28.444,28.781-79.235,62.74-100.961
			c16.468-10.535,37.455-7.495,55.404-15.392c22.607-9.945,42.403-25.688,62.135-40.244c19.955-14.72,40.341-30.768,63.729-39.734
			c21.414-8.21,44.959-6.06,67.419-8.767c54.94-6.623,108.785-19.99,164.04-24.278
			C1824.952,1044.978,1824.952,1040.921,1824.952,1032.806z"/>
		<path fill="#241F20" d="M1824.952,1072.414c-55.255,4.292-109.1,17.65-164.04,24.277c-22.399,2.701-46.049,0.445-67.411,8.588
			c-23.446,8.938-43.822,25.16-63.739,39.984c-19.705,14.666-39.487,30.577-62.15,40.526c-17.961,7.885-38.805,4.688-55.312,15.198
			c-33.972,21.631-36.987,72.164-63.407,100.486c-30.237,32.415-69.557,10.067-98.897-11.92
			c-32.543-24.388-61.598-55.281-102.528-64.5c-22.938-5.167-34.31-9.188-49.701-29.1c-17.976-23.255-30.866-50.389-44.649-76.193
			c-18.732-35.071-39.486-86.949-84.439-90.242c-31.638-2.318-64.971,2.755-96.573,4.684c-31.491,1.922-70.206-3.689-98.978,10.553
			c-35.94,17.791-58.327,54.951-91.167,77.171c-43.071,29.143-87.016,3.749-127.436-18.491
			c-49.303-27.128-104.933-73.377-162.929-77.959c-63.624-5.026-126.478-13.145-189.832-21.258
			c-46.454-5.949-105.895-24.822-138.051,19.287c-22.431,30.769-32.912,70.399-75.582,76.03c0,8.116,0,12.177,0,20.293
			c42.672-5.638,53.148-45.263,75.582-76.034c32.156-44.107,91.6-25.236,138.051-19.285c63.353,8.116,126.207,16.232,189.831,21.257
			c57.992,4.579,113.634,50.832,162.929,77.962c40.419,22.244,84.367,47.626,127.436,18.487
			c32.84-22.218,55.226-59.38,91.167-77.169c28.773-14.241,67.486-8.633,98.978-10.555c31.597-1.928,64.943-7.017,96.573-4.684
			c44.605,3.289,64.864,54.037,83.312,88.942c13.418,25.388,25.947,52.104,43.573,74.95c15.266,19.787,26.675,23.659,49.442,28.801
			c40.938,9.245,69.97,40.107,102.527,64.502c29.597,22.177,68.27,43.904,99.132,12.188c26.882-27.626,31.58-76.902,65.585-97.97
			c16.666-10.325,37.361-7.238,55.363-15.142c22.664-9.95,42.443-25.862,62.15-40.527c19.919-14.823,40.291-31.047,63.739-39.981
			c21.366-8.142,45.009-5.888,67.411-8.588c54.94-6.623,108.785-19.99,164.04-24.278
			C1824.952,1084.59,1824.952,1080.529,1824.952,1072.414z"/>
		<path fill="#241F20" d="M1824.952,1112.025c-55.255,4.292-109.1,17.656-164.04,24.279c-22.4,2.7-46.047,0.445-67.411,8.586
			c-23.446,8.934-43.823,25.162-63.739,39.984c-19.705,14.665-39.486,30.58-62.15,40.528c-18.092,7.941-38.66,4.901-55.602,14.864
			c-34.229,20.129-40.915,68.006-68.5,94.61c-31.72,30.593-69.819,9.561-99.666-12.808c-32.521-24.373-61.603-55.33-102.527-64.502
			c-22.477-5.037-33.811-8.561-48.874-28.142c-17.166-22.313-29.224-48.489-42.167-73.328c-18.037-34.612-37.535-83.793-81.6-86.968
			c-31.652-2.281-64.958,2.754-96.573,4.684c-31.491,1.922-70.205-3.688-98.978,10.553c-35.941,17.788-58.326,54.954-91.167,77.171
			c-43.072,29.139-87.015,3.754-127.436-18.489c-49.3-27.129-104.935-73.378-162.929-77.96
			c-63.624-5.026-126.478-13.145-189.831-21.259c-46.453-5.949-105.896-24.82-138.052,19.287
			c-22.435,30.772-32.91,70.395-75.582,76.032c0,8.115,0,12.173,0,20.288c42.672-5.631,53.149-45.266,75.582-76.034
			c32.158-44.106,91.598-25.236,138.051-19.285c63.353,8.116,126.207,16.239,189.832,21.259
			c57.992,4.575,113.633,50.833,162.929,77.96c40.418,22.242,84.367,47.631,127.436,18.489
			c32.838-22.219,55.226-59.381,91.166-77.17c28.772-14.241,67.486-8.632,98.978-10.554c31.65-1.932,64.88-6.866,96.574-4.684
			c43.348,2.985,61.871,50.176,79.373,84.396c12.357,24.162,23.834,49.664,40.43,71.325c14.786,19.299,25.977,22.335,48.056,27.204
			c40.908,9.021,70.07,40.174,102.528,64.5c30.137,22.586,67.658,42.797,100.439,13.699c28.49-25.289,37.53-71.548,72.124-90.431
			c17.316-9.452,37.754-6.417,55.985-14.421c22.663-9.949,42.445-25.861,62.15-40.527c19.917-14.824,40.292-31.048,63.739-39.983
			c21.364-8.142,45.011-5.886,67.411-8.588c54.94-6.626,108.785-19.982,164.04-24.278
			C1824.952,1124.199,1824.952,1120.141,1824.952,1112.025z"/>
		<path fill="#241F20" d="M1824.952,1151.638c-55.255,4.292-109.1,17.651-164.04,24.277c-22.4,2.702-46.048,0.445-67.411,8.587
			c-23.447,8.936-43.822,25.16-63.739,39.984c-19.704,14.665-39.487,30.58-62.15,40.528c-18.396,8.074-38.693,5.026-56.405,13.935
			c-34.997,17.602-46.408,62.223-75.828,86.159c-33.837,27.53-70.82,8.155-101.263-14.654
			c-32.383-24.265-61.644-55.655-102.528-64.5c-21.66-4.687-32.688-7.195-47.187-26.197c-16.017-20.991-26.901-45.819-38.664-69.286
			c-16.945-33.807-34.458-78.959-77.061-81.728c-31.742-2.063-64.881,2.75-96.573,4.684c-31.491,1.922-70.207-3.69-98.979,10.553
			c-35.94,17.791-58.324,54.954-91.165,77.171c-43.074,29.141-87.015,3.75-127.437-18.491
			c-49.304-27.129-104.932-73.374-162.929-77.958c-63.624-5.029-126.479-13.144-189.832-21.26
			c-46.452-5.951-105.894-24.821-138.051,19.285c-22.433,30.769-32.91,70.402-75.582,76.033c0,8.115,0,12.174,0,20.289
			c42.671-5.638,53.147-45.263,75.582-76.033c32.158-44.107,91.597-25.238,138.052-19.287c63.353,8.116,126.207,16.24,189.832,21.26
			c57.992,4.575,113.631,50.834,162.928,77.96c40.421,22.242,84.365,47.63,127.436,18.489
			c32.839-22.218,55.227-59.382,91.167-77.171c28.771-14.24,67.488-8.633,98.978-10.555c31.732-1.937,64.785-6.618,96.573-4.682
			c41.826,2.548,58.316,45.593,74.676,78.975c11.148,22.75,21.414,46.868,36.832,67.172c14.193,18.692,25.068,20.668,46.29,25.168
			c65.076,13.799,134.118,132.464,204.639,80.13c30.374-22.541,44.243-65.424,79.661-81.734
			c18.118-8.344,38.263-5.287,56.838-13.441c22.664-9.949,42.445-25.86,62.15-40.526c19.916-14.823,40.293-31.05,63.739-39.982
			c21.365-8.14,45.01-5.886,67.411-8.586c54.941-6.623,108.785-19.984,164.04-24.28
			C1824.952,1163.809,1824.952,1159.753,1824.952,1151.638z"/>
		<path fill="#241F20" d="M-0.14,1233.371c37.753-15.152,45.408-55.113,70.658-83.238c15.254-16.99,31.893-19.849,53.866-18.717
			c32.471,1.673,64.851,6.369,97.053,10.641c35.354,4.689,70.661,9.804,106.097,13.85c24.743,2.825,51.021,1.653,75.415,6.286
			c59.613,11.321,113.627,57.003,166.462,84.532c42.376,22.08,79.887,36.262,120.637,4.502
			c30.089-23.451,54.129-61.294,91.04-74.858c29.015-10.663,67.668-5.436,98.467-7.376c30.463-1.92,66.272-8.963,96.523-4.241
			c42.429,6.622,58.644,64.937,74.726,98.121c9.187,18.955,19.159,41.563,36.135,55.031c14.466,11.477,31.934,8.22,48.587,14.122
			c66.172,23.451,125.913,133.435,201.326,67.754c26.945-23.468,48.711-63.244,86.741-69.908
			c21.933-3.844,38.761-4.973,58.835-16.469c21.966-12.58,41.521-28.948,61.982-43.729c18.94-13.682,39.669-28.617,63.05-33.385
			c22.507-4.589,46.772-3.205,69.647-6.525c53.62-7.782,106.555-20.785,160.893-22.469c0-8.115,0-12.174,0-20.289
			c-54.34,1.684-107.27,14.69-160.893,22.467c-22.874,3.317-47.141,1.937-69.647,6.523c-23.378,4.765-44.112,19.706-63.05,33.385
			c-20.462,14.779-40.016,31.154-61.982,43.732c-20.076,11.495-36.929,12.441-58.782,16.527
			c-37.95,7.096-58.179,48.788-83.977,73.104c-72.521,68.353-135.913-43.861-200.429-66.724
			c-16.832-5.965-34.216-2.735-48.826-14.397c-17.402-13.89-27.773-37.039-37.375-56.463
			c-16.619-33.622-33.883-93.868-76.96-100.697c-30.199-4.787-66.102,2.321-96.523,4.236c-30.798,1.939-69.455-3.282-98.469,7.38
			c-36.91,13.563-60.952,51.405-91.04,74.856c-40.75,31.762-78.257,17.578-120.636-4.5
			c-52.839-27.528-106.847-73.209-166.464-84.532c-24.393-4.633-50.671-3.462-75.413-6.286
			c-35.436-4.044-70.743-9.161-106.097-13.852c-32.202-4.272-64.583-8.967-97.054-10.641c-21.975-1.133-38.607,1.727-53.864,18.717
			c-25.254,28.124-32.903,68.085-70.659,83.238C-0.14,1221.195-0.14,1225.256-0.14,1233.371z"/>
		<path fill="#241F20" d="M1824.952,1220.234c-55.256,4.277-109.1,17.654-164.04,24.277c-22.4,2.7-46.046,0.445-67.411,8.586
			c-23.447,8.934-43.823,25.161-63.739,39.984c-19.705,14.666-39.485,30.577-62.15,40.524c-18.81,8.255-38.668,5.387-57.377,12.815
			c-36.048,14.312-54.669,53.482-86.688,73.627c-76.336,48.026-136.902-67.223-205.881-81.564
			c-20.477-4.258-31.305-5.477-44.969-23.64c-14.311-19.022-23.436-41.827-33.43-63.243c-15.268-32.717-30.114-71.959-70.592-74.264
			c-31.834-1.812-64.802,2.743-96.573,4.682c-31.492,1.922-70.204-3.686-98.978,10.555c-35.941,17.787-58.328,54.95-91.167,77.169
			c-43.069,29.14-87.017,3.755-127.436-18.487c-49.297-27.128-104.937-73.384-162.929-77.961
			c-63.625-5.021-126.478-13.145-189.832-21.259c-46.453-5.95-105.897-24.822-138.051,19.287
			c-22.432,30.771-32.912,70.396-75.582,76.033c0,8.115,0,12.171,0,20.286c42.61-5.715,53.148-45.258,75.602-75.998
			c32.216-44.104,91.555-25.262,138.061-19.31c63.343,8.106,126.198,16.149,189.803,21.257
			c57.991,4.656,113.582,50.804,162.904,77.922c40.445,22.237,84.334,47.626,127.418,18.493
			c32.852-22.214,55.301-59.32,91.241-77.12c28.779-14.254,67.456-8.675,98.955-10.584c31.728-1.923,64.768-6.586,96.55-4.668
			c40.276,2.431,55.067,41.127,70.162,73.76c9.781,21.146,18.704,43.661,32.806,62.425c13.604,18.101,24.616,19.461,45.024,23.784
			c69.53,14.729,128.737,128.891,205.786,81.434c32.219-19.844,51.981-57.847,87.954-72.118c18.675-7.409,38.487-4.787,57.22-13.008
			c22.667-9.948,42.442-25.87,62.145-40.542c19.915-14.83,40.285-31.066,63.737-39.997c21.361-8.135,45.018-5.873,67.415-8.574
			c54.94-6.626,108.785-19.979,164.04-24.278C1824.952,1232.404,1824.952,1228.35,1824.952,1220.234z"/>
		<path fill="#241F20" d="M1824.952,1259.843c-55.255,4.292-109.1,17.651-164.04,24.277c-22.344,2.694-46.173,0.272-67.467,8.415
			c-23.496,8.984-43.745,25.623-63.489,40.736c-19.547,14.963-39.188,31.273-61.883,41.329c-18.646,8.263-38.432,5.87-57.13,13.26
			c-35.506,14.031-56.958,49.448-89.228,68.497c-78.953,46.607-135.346-66.715-206.152-82.546
			c-20.021-4.477-31.177-6.708-44.896-23.998c-14.097-17.766-23.593-39.003-33.818-59.08
			c-15.887-31.191-32.131-68.558-71.006-71.313c-31.019-2.199-63.766,2.136-94.836,3.392c-31.625,1.278-69.011-3.625-98.068,10.448
			c-36.409,17.634-61.148,52.991-94.86,74.701c-43.533,28.034-85.652,4.085-126.864-17.771
			c-49.308-26.149-103.725-69.078-160.867-74.691c-62.462-6.137-124.637-12.742-186.999-20.479
			c-47.254-5.861-103.73-23.456-137.812,19.053c-23.638,29.482-36.211,65.979-77.408,72.893c0,8.115,0,12.174,0,20.289
			c39.987-6.588,55.657-38.748,81.551-65.768c36.542-38.13,89.64-22.867,136.735-17.391c60.142,6.994,120.217,12.644,180.406,18.514
			c55.23,5.387,107.678,43.434,156.256,67.372c42.102,20.747,82.031,40.874,126.09,15.579
			c35.686-20.488,63.946-53.05,101.662-70.158c29.231-13.26,65.229-8.63,96.635-8.672c29.992-0.04,61.194-2.746,91.055-0.58
			c37.301,2.706,55.308,35.179,73.062,64.566c10.947,18.121,21.309,37.257,35.65,53.01c14.344,15.755,26.018,17.767,45.448,22.164
			c73.652,16.668,124.325,130.525,207.595,86.827c32.616-17.116,56.472-48.913,91.669-61.55
			c18.943-6.801,38.565-4.602,57.167-13.165c22.676-10.44,42.073-27.361,61.382-42.831c19.482-15.609,39.499-32.896,62.999-42.21
			c21.183-8.396,45.113-5.862,67.421-8.553c54.94-6.626,108.785-19.982,164.04-24.278
			C1824.952,1272.016,1824.952,1267.958,1824.952,1259.843z"/>
		<path fill="#241F20" d="M1824.952,1299.454c-55.255,4.292-109.1,17.651-164.04,24.277c-22.291,2.688-46.258,0.09-67.307,8.897
			c-23.477,9.824-43.198,27.87-62.374,44.088c-19.025,16.09-38.125,33.736-60.751,44.724c-18.612,9.038-37.953,6.987-57.294,12.824
			c-35.086,10.588-61.588,38.224-94.75,52.772c-89.003,39.047-132.125-75.826-209.698-93.04
			c-18.802-4.172-31.19-5.384-46.441-19.004c-14.729-13.154-26.12-29.794-37.935-45.465c-20.362-27.008-40.068-52.815-75.82-55.267
			c-28.517-1.955-57.479-1.59-86.088-3.113c-31.242-1.663-65.209-5.803-94.925,5.857c-39.794,15.615-72.034,45.676-110.206,64.449
			c-44.267,21.771-82.488,6.403-125.225-12.498c-47.381-20.955-97.439-53.331-150.159-57.707
			c-57.3-4.756-114.389-9.807-171.621-15.844c-46.382-4.893-96.229-17.236-135.15,14.845
			c-28.597,23.571-48.012,51.025-87.041,56.325c0,8.115,0,12.174,0,20.289c38.274-3.467,62.205-25.779,93.792-44.711
			c40.99-24.566,87.732-15.688,133.125-11.564c53.646,4.872,107.043,9.435,160.795,12.54c49.653,2.868,96.886,28.651,142.67,45.827
			c42.897,16.093,80.348,26.366,124.231,8.635c41.274-16.678,78.02-43.729,120.494-57.577
			c53.037-17.291,118.352,2.058,172.912,5.456c34.358,2.141,55.295,20.402,79.233,43.666c12.981,12.615,25.436,26.412,40.669,36.424
			c16.248,10.679,29.661,10.918,47.787,14.777c42.906,9.137,73.759,47.854,105.946,74.759
			c33.466,27.974,63.82,40.529,106.421,26.173c33.905-11.426,63.3-34.113,98.478-42.17c19.901-4.559,38.771-2.607,57.487-12.31
			c22.55-11.689,41.297-30.185,59.989-47.011c18.818-16.939,38.177-35.881,61.612-46.366c20.896-9.349,44.844-6.703,67.142-9.393
			c54.94-6.626,108.785-19.989,164.04-24.277C1824.952,1311.628,1824.952,1307.569,1824.952,1299.454z"/>
		<path fill="#241F20" d="M1824.952,1339.064c-55.255,4.296-109.1,17.652-164.04,24.278c-22.324,2.692-46.223,0.007-66.969,9.913
			c-23.393,11.169-42.384,30.989-60.854,48.641c-18.368,17.555-36.757,36.885-59.229,49.291
			c-18.883,10.425-37.193,8.536-57.689,11.763c-35.479,5.586-67.474,23.241-102.195,31.593
			c-44.254,10.645-73.946-1.102-107.884-30.431c-31.816-27.495-63.82-69.689-107.194-78.495
			c-17.435-3.539-32.405-2.686-49.168-10.438c-15.576-7.203-29.32-17.764-43.395-27.417c-27.037-18.543-49.668-30.068-82.666-31.973
			c-55.492-3.202-108.985-28.495-164.811-13.746c-45.316,11.973-86.34,36.135-130.755,50.722
			c-42.895,14.088-80.796,8.003-123.257-4.735c-44.075-13.222-88.572-32.554-135.158-33.907
			c-50.128-1.456-99.908-5.518-149.919-9.213c-44.155-3.262-89.149-9.233-131.072,8.221
			c-34.029,14.167-62.759,31.386-100.568,33.057c0,8.115,0,12.173,0,20.288c37.902-0.067,71.187-12.032,107.412-21.287
			c42.168-10.772,85.984-7.184,129.015-4.879c46.317,2.48,92.542,5.872,138.944,5.859c43.486-0.012,85.381,12.864,127.567,21.87
			c41.588,8.878,80.732,11.691,122.256,0.812c47.655-12.487,92.862-33.646,141.167-43.768c30.149-6.317,59.79-4.572,88.875,5.319
			c22.68,7.714,43.474,15.379,67.731,16.756c31.785,1.805,56.729,7.506,86.127,20.199c15.182,6.555,30.196,13.756,46.162,18.271
			c16.998,4.808,33.619,2.844,50.539,6.126c43.814,8.499,77.014,54.222,108.455,82.275c34.504,30.785,63.618,41.464,109.337,34.671
			c35.65-5.297,69.962-17.564,105.962-20.867c21.072-1.933,38.813-0.035,57.892-11.227c22.393-13.137,40.417-33.318,58.457-51.607
			c18.117-18.367,36.734-39.083,60.085-50.947c20.594-10.464,44.441-7.727,66.8-10.422c54.94-6.623,108.785-19.99,164.04-24.278
			C1824.952,1351.237,1824.952,1347.18,1824.952,1339.064z"/>
		<path fill="#241F20" d="M1824.952,1378.674c-55.255,4.292-109.1,17.65-164.04,24.277c-22.378,2.699-46.219-0.105-66.678,10.79
			c-23.33,12.424-41.627,33.915-59.44,52.88c-17.761,18.908-35.468,39.817-57.809,53.553c-19.147,11.772-36.586,10.011-58.029,10.86
			c-36.633,1.451-72.628,9.041-109.132,11.844c-17.601,1.352-37.537,3.572-54.799-1.122c-21.492-5.845-39.672-22.202-55.674-36.854
			c-31.199-28.564-65.283-77.061-109.504-85.425c-16.684-3.155-34.57-0.321-51.59-2.806c-16.393-2.394-32.414-6.675-48.5-10.528
			c-30.371-7.275-58.104-8.734-88.979-10.576c-23.61-1.409-41.731-10.87-62.61-20.562c-27.817-12.913-57.197-13.349-87.126-8.261
			c-50.886,8.65-99.532,27.132-149.945,37.902c-40.43,8.638-80.579,7.702-121.375,2.381c-40.421-5.272-80.361-12.725-121.278-11.895
			c-43.3,0.879-86.612-1.662-129.875-3.104c-42.314-1.411-85.308-3.553-127.365,2.227c-37.918,5.211-74.591,12.505-113.077,11.541
			c0,8.115,0,12.175,0,20.29c81.066,2.513,162.419-5.474,243.683-4.336c79.89,1.118,159.414,0.776,239.195,5.09
			c40.355,2.182,80.681,2.403,120.58-4.752c52.678-9.447,104.099-25.484,157.116-33.109c29.689-4.27,59.076-5.236,85.63,10.238
			c19.601,11.422,34.96,22.013,58.585,23.558c30.365,1.985,60.68,0.472,91.178,3.313c16.794,1.564,33.578,3.355,50.433,4.145
			c16.923,0.793,35.63-2.438,52.225,0.715c44.669,8.484,79.176,58.812,110.333,87.92c16.024,14.971,34.303,31.89,56.023,37.906
			c17.279,4.786,37.457,2.665,55.19,2.237c37.261-0.898,74.424-4.321,111.709-4.511c21.549-0.109,39.042,1.375,58.081-10.719
			c22.324-14.181,39.769-35.723,57.283-55.137c17.548-19.451,35.576-41.613,58.921-54.437c20.337-11.171,44.256-8.271,66.618-10.967
			c54.94-6.623,108.784-19.99,164.04-24.278C1824.952,1390.848,1824.952,1386.789,1824.952,1378.674z"/>
		<path fill="#241F20" d="M1824.952,1418.286c-55.255,4.296-109.1,17.654-164.04,24.277c-22.285,2.687-46.414-0.335-66.654,10.854
			c-23.4,12.937-41.28,35.565-58.64,55.285c-17.346,19.705-34.624,41.678-56.984,56.032c-18.713,12.013-36.697,10.958-58.013,10.913
			c-37.718-0.079-75.435,0.361-113.152,0.396c-17.656,0.017-37.97,2.641-55.145-2.103c-21.862-6.037-40.149-23.208-56.174-38.352
			c-31.416-29.69-65.609-80.232-110.764-89.207c-32.172-6.395-70.909-0.7-103.767-1.009c-30.482-0.287-61.828,1.986-92.203-0.212
			c-24.13-1.746-37.458-12.265-56.562-25.062c-25.551-17.114-55.38-14.607-84.666-10.633
			c-54.208,7.356-107.247,21.545-161.204,30.384c-39.914,6.538-79.688,5.907-119.994,5.694
			c-159.611-0.842-319.259,1.191-478.862-0.139c0,8.115,0,12.174,0,20.289c159.048,0,318.097,0.027,477.129-1.854
			c40.479-0.479,79.75-0.204,119.931-6.168c53.926-8.004,107.36-19.219,161.422-26.325c30.036-3.948,58.238-6.705,84.925,9.769
			c19.531,12.057,34.01,22.455,57.895,24.362c30.327,2.422,61.685,0.217,92.108,0.217c32.865,0,71.568-5.66,103.801,0.839
			c45.255,9.125,79.289,59.498,110.798,89.31c16.003,15.142,34.307,32.373,56.175,38.36c17.154,4.696,37.45,1.917,55.08,1.917
			c37.766,0,75.53,0,113.296,0c21.23,0,39.358,0.953,57.98-10.996c22.374-14.356,39.631-36.382,56.955-56.117
			c17.335-19.748,35.192-42.436,58.612-55.361c20.228-11.164,44.41-8.11,66.676-10.796c54.94-6.626,108.785-19.982,164.04-24.278
			C1824.952,1430.459,1824.952,1426.402,1824.952,1418.286z"/>
		<path fill="#241F20" d="M1824.952,1457.896c-55.255,4.292-109.1,17.656-164.04,24.279c-22.267,2.685-46.447-0.368-66.676,10.796
			c-23.42,12.925-41.277,35.613-58.612,55.361c-17.325,19.736-34.58,41.757-56.955,56.113c-18.625,11.95-36.746,11-57.98,11
			c-37.766,0-75.53,0-113.296,0c-17.631,0-37.925,2.777-55.08-1.919c-21.87-5.987-40.17-23.218-56.175-38.359
			c-31.511-29.812-65.542-80.184-110.798-89.308c-32.233-6.499-70.935-0.84-103.801-0.84c-30.444,0-61.707,2.062-92.065-0.24
			c-23.884-1.811-41.011-11.651-61.672-22.318c-28.23-14.574-55.938-12.296-86.762-9.2c-53.75,5.398-107.309,12.532-161.018,18.302
			c-40.106,4.309-79.683,4.459-119.922,5.926c-157.304,5.736-314.541,7.531-471.972,7.531c0,8.115,0,12.174,0,20.289
			c80.058,0,161.823,4.782,241.588-2.672c73.99-6.915,147.934-8.479,222.066-13.857c93.136-6.758,187.002-7.483,280.315-11.737
			c31.612-1.44,59.999-2.86,89.897,8.86c22.552,8.841,42.793,17.662,67.416,19.203c30.485,1.908,61.585,0.203,92.128,0.203
			c32.866,0,71.568-5.66,103.801,0.84c45.255,9.126,79.288,59.498,110.798,89.31c16.003,15.14,34.308,32.375,56.175,38.36
			c17.154,4.695,37.45,1.916,55.08,1.916c37.766,0,75.53,0,113.296,0c21.231,0,39.357,0.955,57.98-10.996
			c22.375-14.358,39.63-36.38,56.955-56.117c17.334-19.747,35.194-42.436,58.612-55.361c20.227-11.164,44.411-8.11,66.676-10.796
			c54.94-6.626,108.785-19.985,164.04-24.277C1824.952,1470.071,1824.952,1466.012,1824.952,1457.896z"/>
		<path fill="#241F20" d="M0.688,1542.989c75.587,0,158.188,9.738,231.955-9.052c33.165-8.447,63.311-13.102,97.535-14.785
			c38.598-1.899,76.439-10.427,114.64-15.621c94.406-12.836,188.181,13.995,282.184,20.049c30.84,1.986,60.168,2.865,90.546,9.227
			c28.138,5.893,55.217,9.955,84.047,10.183c30.83,0.243,61.673,0,92.505,0c31.582,0,74.516-7.549,104.026,4.881
			c44.876,18.9,75.188,66.451,111.242,97.313c16.656,14.257,33.501,25.632,55.61,28.228c17.755,2.084,37.083,0.004,54.976,0.004
			c37.766,0,75.53,0,113.296,0c53.166,0,81.526-44.316,114.189-80.531c16.233-17.999,35.01-39.954,59.052-47.465
			c21.317-6.659,47.414-4.124,69.618-7.317c53.965-7.762,107.214-20.918,161.892-22.612c0-8.115,0-12.176,0-20.291
			c-54.678,1.702-107.926,14.851-161.892,22.612c-22.206,3.193-48.298,0.661-69.618,7.319
			c-24.043,7.508-42.818,29.464-59.052,47.464c-32.661,36.217-61.024,80.53-114.189,80.53c-37.766,0-75.53,0-113.296,0
			c-17.893,0-37.221,2.08-54.976-0.004c-22.111-2.596-38.954-13.969-55.61-28.228c-36.051-30.862-66.369-78.413-111.242-97.312
			c-29.513-12.43-72.443-4.883-104.026-4.883c-30.824,0-61.685,0.444-92.505,0c-27.391-0.395-51.604-5.585-77.606-13.675
			c-28.674-8.921-55.222-11.051-85.18-11.06c-94.148-0.028-189.086-11.441-283.067-2.427
			c-72.851,6.987-146.506,9.246-218.646,21.057c-77.246,12.646-158.354,6.1-236.406,6.105
			C0.688,1530.814,0.688,1534.874,0.688,1542.989z"/>
		<path fill="#241F20" d="M-11.871,1575.836c39.929,0,79.858,0,119.788,0c37.05,0,75.272,3.939,110.336-10.262
			c28.295-11.46,50.805-22.883,82.045-24.684c39.296-2.266,76.652-12.488,114.929-20.872c42.061-9.213,77.579-9.94,119.657,0.046
			c52.987,12.575,104.632,30.615,157.988,41.672c34.275,7.103,69.2,5.33,103.965,8.338c30.714,2.657,61.205,5.655,92.068,5.832
			c30.874,0.177,61.759-0.07,92.634-0.07c32.866,0,71.567-5.66,103.801,0.839c45.255,9.124,79.289,59.498,110.798,89.31
			c16.004,15.142,34.306,32.372,56.175,38.359c17.155,4.696,37.449,1.918,55.08,1.918c37.766,0,75.53,0,113.296,0
			c21.229,0,39.358,0.953,57.98-10.995c22.374-14.355,39.632-36.383,56.955-56.118c17.333-19.747,35.192-42.439,58.612-55.361
			c20.23-11.162,44.408-8.109,66.676-10.795c54.94-6.627,108.785-19.98,164.04-24.279c0-8.115,0-12.176,0-20.291
			c-55.255,4.296-109.1,17.65-164.04,24.277c-22.262,2.686-46.452-0.366-66.676,10.795c-23.417,12.924-41.28,35.617-58.612,55.363
			c-17.324,19.737-34.581,41.757-56.955,56.115c-18.624,11.951-36.747,11-57.98,11c-37.766,0-75.53,0-113.296,0
			c-17.629,0-37.926,2.779-55.08-1.918c-21.87-5.988-40.17-23.219-56.175-38.36c-31.511-29.812-65.542-80.184-110.798-89.308
			c-32.233-6.499-70.935-0.84-103.801-0.84c-30.814,0-61.694,0.593-92.503-0.003c-28.831-0.558-56.766-5.298-85.196-9.557
			c-33.281-4.985-66.782-3.976-100.068-8.522c-93.671-12.795-183.469-43.744-278.388-26.81
			c-38.216,6.818-75.79,15.243-114.708,16.836c-32.089,1.313-58.873,10.94-89.254,19.89c-36.999,10.897-75.362,8.166-113.503,8.166
			c-39.93,0-79.859,0-119.789,0C-11.871,1563.662-11.871,1567.721-11.871,1575.836z"/>
		<path fill="#241F20" d="M-11.871,1615.446c39.929,0.003,79.858,0,119.788,0c34.994,0,75.341,6.45,106.526-12.785
			c25.596-15.788,40.677-29.029,72.303-31.127c39.986-2.652,76.903-15.71,115.229-26.348c42.79-11.876,77.167-13.451,119.61,1.17
			c53.07,18.282,103.088,45.152,157.012,61.011c35.37,10.402,72.36,6.955,108.845,7.414c33.822,0.426,67.626,0.887,101.452,0.741
			c30.881-0.134,61.764-0.076,92.646-0.076c32.866,0,71.568-5.66,103.801,0.84c45.254,9.126,79.289,59.496,110.798,89.308
			c16.003,15.141,34.307,32.374,56.175,38.361c17.153,4.696,37.451,1.917,55.08,1.917c37.766,0,75.53,0,113.296,0
			c21.231,0,39.358,0.954,57.98-10.997c22.374-14.359,39.63-36.381,56.955-56.118c17.334-19.747,35.193-42.438,58.612-55.361
			c20.228-11.163,44.41-8.11,66.676-10.795c54.94-6.625,108.785-19.989,164.04-24.277c0-8.115,0-12.173,0-20.288
			c-55.255,4.292-109.1,17.654-164.04,24.277c-22.267,2.685-46.447-0.366-66.676,10.797c-23.42,12.924-41.278,35.613-58.612,55.361
			c-17.323,19.735-34.581,41.762-56.955,56.117c-18.623,11.948-36.749,10.996-57.98,10.996c-37.766,0-75.53,0-113.296,0
			c-17.631,0-37.925,2.778-55.08-1.918c-21.869-5.987-40.171-23.218-56.175-38.359c-31.511-29.812-65.541-80.185-110.798-89.309
			c-32.233-6.499-70.935-0.84-103.801-0.84c-30.898,0-61.797,0.031-92.694,0.103c-32.562,0.075-64.997-1.485-97.52-2.874
			c-35.933-1.535-71.878,1.128-106.937-8.013c-53.582-13.97-104.444-36.745-157.435-52.643
			c-42.528-12.759-76.888-11.701-119.618-0.93c-38.315,9.658-75.451,21.395-115.104,24.064
			c-31.111,2.095-49.667,14.703-76.352,28.458c-33.068,17.045-71.968,11.834-107.963,11.834c-39.929,0-79.858-0.003-119.788,0
			C-11.871,1603.273-11.871,1607.331-11.871,1615.446z"/>
		<path fill="#241F20" d="M-11.913,1653.427c39.929,0,79.858,0,119.788,0c35.361,0,75.073,5.989,106.935-12.518
			c25.928-15.06,42.251-28.131,73.603-30.273c39.864-2.725,76.864-15.3,115.19-25.609c42.6-11.459,77.456-13.432,119.689,1.133
			c51.926,17.907,100.613,44.831,153.432,60.22c35.567,10.362,73.128,6.883,109.801,7.311c34.625,0.404,69.241,0.877,103.87,0.791
			c30.812-0.076,61.624-0.054,92.437-0.054c32.854,0,71.671-5.685,103.823,1.244c44.107,9.506,78.415,55.693,110.504,84.038
			c16.379,14.468,34.654,30.302,56.077,36.615c17.248,5.083,37.318,2.451,55.112,2.451c37.764,0,75.528,0,113.292,0
			c21.437,0,39.187,0.164,58.063-11.569c21.712-13.495,39.008-33.626,56.373-52.034c17.479-18.528,35.362-39.16,58.066-51.499
			c20.68-11.238,44.085-8.729,66.77-11.464c54.94-6.623,108.785-19.987,164.04-24.275c0-8.115,0-12.174,0-20.289
			c-55.255,4.292-109.1,17.656-164.04,24.278c-22.375,2.697-46.395-0.256-66.707,11.017c-23.336,12.95-41.2,35.418-58.57,55.077
			c-17.345,19.631-34.612,41.457-56.909,55.793c-18.675,12.007-36.698,11.229-58.015,11.229c-37.765,0-75.529,0-113.294,0
			c-17.658,0-37.928,2.761-55.09-2.046c-21.817-6.11-40.121-23.23-56.173-38.331c-31.574-29.703-65.662-79.67-110.779-88.973
			c-32.184-6.636-70.966-0.936-103.805-0.936c-30.83,0-61.66-0.014-92.49,0.012c-34.293,0.027-68.586-0.008-102.88-0.044
			c-36.333-0.039-74.084,3.687-109.271-6.828c-54.114-16.171-103.48-45.191-156.555-64.192
			c-42.047-15.053-77.361-12.973-119.738-0.808c-38.315,10.999-75.121,24.695-115.267,27.038
			c-32.211,1.88-45.731,15.193-71.106,31.897c-30.366,19.99-71.827,12.903-106.347,12.903c-39.929,0-79.858,0-119.787,0
			C-11.876,1642.672-11.886,1646.373-11.913,1653.427z"/>
		<path fill="#241F20" d="M-12.116,1684.91c39.929,0,79.859,0,119.788,0c37.483,0,75.659,3.439,111.512-9.484
			c29.072-10.479,53.263-21.256,84.749-22.884c39.146-2.024,76.593-11.565,114.846-19.36c40.822-8.318,76.689-10.433,117.218,0.889
			c47.816,13.357,93.432,34.139,141.837,45.464c35.981,8.419,74.078,5.679,110.83,7.402c36.036,1.689,72.037,3.8,108.123,3.99
			c30.821,0.163,61.649-0.024,92.472-0.024c33.476,0,70.778-4.617,103.808,0.972c41.415,7.008,75.782,40.833,109.363,63.497
			c16.987,11.465,35.319,23.114,55.583,27.702c17.656,3.997,37.09,1.895,55.081,1.895c37.765,0,75.529,0,113.294,0
			c47.561,0,75.435-17.043,111.996-46.417c17.411-13.988,35.178-28.938,56.076-37.491c21.043-8.612,44.246-6.56,66.453-9.238
			c54.94-6.626,108.785-19.984,164.04-24.276c0-8.115,0-12.174,0-20.289c-55.255,4.299-109.1,17.652-164.04,24.279
			c-22.562,2.721-45.783,0.476-66.672,10.777c-21.903,10.803-39.752,28.948-57.223,45.572
			c-17.278,16.44-34.536,34.217-55.521,46.007c-18.944,10.645-36.851,10.573-57.921,10.573c-37.765,0-75.53,0-113.295,0
			c-17.89,0-37.697,2.435-55.104-2.354c-20.903-5.75-39.193-19.73-55.877-32.986c-32.76-26.028-67.137-66.779-110.025-75.428
			c-32.468-6.547-70.735-1.228-103.822-1.228c-30.812,0-61.624,0.052-92.436,0.055c-35.233,0.003-70.426-1.167-105.643-2.127
			c-36.755-1.002-74.528,2.177-110.304-7.468c-50.911-13.725-98.324-37.932-148.486-53.927
			c-41.667-13.286-76.773-11.25-118.792-1.124c-38.304,9.23-75.521,20.445-115.047,23.008
			c-31.083,2.015-51.018,14.261-78.229,27.216c-33.786,16.085-72.352,11.33-108.723,11.33c-39.93,0-79.859,0-119.789,0
			C-12.038,1675.859-12.063,1678.916-12.116,1684.91z"/>
		<path fill="#241F20" d="M-12.395,1713.375c77.94,0,160.915,8.105,237.948-5.085c71.111-12.177,142.369-15.383,214.054-23.977
			c38.032-4.56,75.402-6.519,113.316,0.114c42.582,7.449,84.069,20.552,126.931,26.497c36.815,5.106,74.763,3.71,111.855,6.98
			c37.865,3.338,75.737,7.528,113.772,8.242c65.042,1.222,131.518-4.802,196.357,0.235c38.399,2.982,72.766,22.277,107.856,36.392
			c36.986,14.877,70.622,15.968,109.906,15.968c37.765,0,75.528,0,113.293,0c40.577,0,71.562-6.262,108.657-22.902
			c17.297-7.76,34.768-15.595,53.486-19.263c21.536-4.22,44.065-2.515,65.873-5.144c54.94-6.623,108.785-19.99,164.04-24.278
			c0-8.115,0-12.173,0-20.288c-55.255,4.296-109.1,17.652-164.04,24.278c-21.9,2.642-44.952,0.73-66.179,7.308
			c-19.837,6.146-37.482,17.683-54.835,28.752c-37.112,23.675-66.182,35.18-110.401,35.18c-37.764,0-75.528,0-113.292,0
			c-41.501,0-73.108-2.825-110.302-23.101c-34.385-18.744-68.716-45.443-108.645-50.513c-33.636-4.271-69.891-0.6-103.787-0.6
			c-30.837,0-61.695,0.345-92.529-0.018c-37.016-0.436-73.911-3.535-110.826-6.028c-36.835-2.487-75.025-0.296-111.33-7.216
			c-45.738-8.718-89.384-25.854-134.687-36.365c-39.214-9.099-75.943-6.978-115.367-0.527
			c-38.153,6.242-75.851,14.245-114.626,15.363c-32.526,0.938-60.768,10.044-91.889,18.137c-37.593,9.776-76.176,7.386-114.68,7.386
			c-39.929,0-79.858-0.003-119.788,0C-12.307,1704.7-12.337,1707.559-12.395,1713.375z"/>
		<path fill="#241F20" d="M-12.642,1743.133c157.031,0,313.794-2.214,470.655-8.96c75.442-3.244,148.378,6.089,223.471,8.901
			c37.966,1.422,75.037,2.195,112.883,6.773c39.477,4.774,79.017,10.897,118.822,12.048c65.383,1.889,131.021-0.216,196.412-0.277
			c36.092-0.034,70.931,6.987,106.506,12.1c36.469,5.24,72.522,4.12,109.25,4.12c72.787,0,146.467,3.983,218.995-2.1
			c38.872-3.261,77.893-0.03,116.56-4.691c54.94-6.623,108.784-19.997,164.04-24.278c0-8.116,0-12.177,0-20.292
			c-55.255,4.296-109.1,17.652-164.04,24.278c-40.316,4.862-78.166,3.653-117.869,13.927
			c-71.666,18.543-146.817,11.854-220.384,11.854c-37.664,0-72.876,0.309-109.552-9.598c-35.479-9.583-70.043-22.361-107.146-23.608
			c-65.368-2.198-130.989,1.694-196.393,0.081c-38.964-0.961-77.717-6.16-116.434-10.248c-37.469-3.957-74.949-3.556-112.356-6.808
			c-40.27-3.501-79.77-12.8-119.883-17.528c-37.012-4.362-74.444-2.725-111.507,0.232c-73.754,5.885-147.293,7.698-220.864,15.373
			c-79.42,8.285-161.271,3.028-241.051,3.028C-12.578,1733.512-12.602,1736.608-12.642,1743.133z"/>
		<path fill="#241F20" d="M-12.749,1778.5c159.557,0,319.115,0,478.672,0c71.834,0,143.668,0,215.502,0
			c79.37,0,156.194,19.214,235.195,21.424c136.834,3.828,274.322,0.076,411.214,0.076c72.688,0,145.576-3.167,217.713,6.947
			c38.662,5.421,76.4,8.408,115.365,3.708c54.94-6.626,108.785-19.982,164.04-24.278c0-8.115,0-12.172,0-20.287
			c-55.255,4.285-109.1,17.654-164.04,24.278c-38.582,4.652-77.051,0.641-115.699-1.356c-72.794-3.762-145.19-4.345-218.083-4.345
			c-71.743,0-143.483-5.904-215.123-4.868c-65.295,0.944-131.123,2.23-196.406,0.253c-78.493-2.377-155.069-19.696-233.854-20.264
			c-72.767-0.524-145.239-4.187-218.064-3.038c-158.784,2.504-317.589,2.667-476.401,2.667
			C-12.741,1766.606-12.749,1770.385-12.749,1778.5z"/>
	</g>
</g>
</svg>
